<?xml version="1.0" encoding="UTF-8" standalone="no"?>
<!-- Created with Inkscape (http://www.inkscape.org/) -->

<svg
   version="1.1"
   id="svg1"
   width="100"
   height="100"
   viewBox="0 0 756 740"
   sodipodi:docname="Capture dՎcran 2025-02-24 221247.svg"
   inkscape:version="1.4 (86a8ad7, 2024-10-11)"
   xmlns:inkscape="http://www.inkscape.org/namespaces/inkscape"
   xmlns:sodipodi="http://sodipodi.sourceforge.net/DTD/sodipodi-0.dtd"
   xmlns="http://www.w3.org/2000/svg"
   xmlns:svg="http://www.w3.org/2000/svg">
  <defs
     id="defs1" />
  <sodipodi:namedview
     id="namedview1"
     pagecolor="#ffffff"
     bordercolor="#000000"
     borderopacity="0.25"
     inkscape:showpageshadow="2"
     inkscape:pageopacity="0.0"
     inkscape:pagecheckerboard="0"
     inkscape:deskcolor="#d1d1d1"
     inkscape:zoom="1.0905405"
     inkscape:cx="377.7943"
     inkscape:cy="370"
     inkscape:window-width="1920"
     inkscape:window-height="1009"
     inkscape:window-x="-8"
     inkscape:window-y="-8"
     inkscape:window-maximized="1"
     inkscape:current-layer="g1" />
  <g
     inkscape:groupmode="layer"
     inkscape:label="Image"
     id="g1">
    <path
       style="fill:rgb(255, 254, 254);stroke:#ffffff;stroke-width:0.90455"
       d="m 417.50506,631.66779 c -2.17787,-0.37611 -9.63956,-0.70527 -16.58153,-0.73147 -14.04191,-0.053 -15.23826,-0.46769 -18.15321,-6.29247 -1.7874,-3.57168 -1.76817,-6.29325 0.0704,-9.96723 0.80771,-1.61401 1.76126,-5.86484 2.119,-9.4463 0.55191,-5.52542 0.3753,-6.86087 -1.16606,-8.81685 -1.35721,-1.7223 -2.0004,-4.74459 -2.54383,-11.95324 -0.57142,-7.57997 -1.94854,-13.73895 -6.42444,-28.73239 l -5.69711,-19.08428 -4.10389,-2.00802 c -2.25714,-1.10441 -4.66139,-2.56888 -5.34278,-3.25437 -1.07628,-1.08277 -0.77357,-1.18331 2.30629,-0.76602 2.31611,0.31381 3.54518,0.1563 3.54518,-0.45434 4e-5,-0.51406 -0.46671,-0.93467 -1.03717,-0.93467 -2.80366,0 -7.9602,-6.55688 -11.78148,-14.98092 l -2.01516,-4.44241 5.39384,4.75252 c 5.01035,4.41463 7.5512,6.05505 5.87837,3.79517 -0.38976,-0.52654 -1.30743,-4.32066 -2.03928,-8.43137 -1.39426,-7.83142 -2.47759,-9.81923 -4.45267,-8.1702 -0.8655,0.72263 -0.62444,2.089 0.98995,5.61126 2.48427,5.42013 2.74572,7.64072 0.49009,4.16241 -2.96419,-4.57096 -7.19483,-16.3285 -8.29973,-23.06609 -0.60907,-3.71404 -1.18237,-6.80523 -1.27402,-6.8693 -4.67082,-3.26564 -9.98109,-6.05481 -10.53564,-5.53374 -0.40291,0.3786 -3.52525,6.2674 -6.93852,13.08623 -9.14243,18.26419 -15.49464,27.24699 -30.69853,43.41145 -14.9886,15.93557 -19.60622,27.52665 -16.98835,42.64385 1.5243,8.80225 5.36379,17.53232 9.40394,21.38232 l 3.12355,2.97652 5.04665,-1.80053 c 4.12033,-1.47004 6.05766,-1.69508 10.55451,-1.22598 12.98456,1.3545 18.55419,6.53036 19.34805,17.98012 l 0.44781,6.45865 -3.83932,1.35081 c -2.96802,1.04427 -8.44673,1.44539 -24.14135,1.76755 -21.06475,0.43237 -42.75383,-0.339 -40.61169,-1.44437 0.96208,-0.49644 0.90725,-1.06427 -0.25097,-2.59889 -0.81511,-1.08 -1.77996,-3.82333 -2.1441,-6.09627 -0.89635,-5.59501 -6.49189,-21.87734 -11.8609,-34.51382 -4.7656,-11.2163 -7.83613,-22.73178 -6.89558,-25.86062 0.32312,-1.07491 4.98135,-9.20897 10.35162,-18.07569 5.37025,-8.86674 10.56127,-18.27473 11.53558,-20.90666 3.43985,-9.29214 1.51221,-38.24906 -3.83992,-57.68291 -2.82618,-10.26202 -3.16749,-10.58352 -5.56229,-5.23946 -1.11171,2.48081 -4.00668,8.39393 -6.43325,13.14027 -9.02796,17.65847 -13.83933,34.49025 -16.99696,59.46096 -0.89101,7.04612 -2.26274,17.75495 -3.04829,23.7974 -2.5558,19.65912 -2.81893,35.04505 -0.7521,43.97762 l 1.8168,7.85199 4.43457,1.07446 c 10.78163,2.61234 13.27477,3.78714 15.28157,7.20092 2.5614,4.3572 2.7049,13.74865 0.26763,17.51503 -2.43308,3.7599 -6.22747,4.37193 -26.95372,4.34761 -37.11047,-0.0436 -39.40394,-1.17345 -35.64784,-17.56218 0.81106,-3.53881 1.91351,-15.38549 2.44989,-26.32594 0.82084,-16.74257 0.72816,-21.48139 -0.58542,-29.93287 -1.94597,-12.5204 -1.52175,-15.71231 3.05841,-23.01227 3.73234,-5.94866 6.42342,-14.27188 6.45419,-19.96209 0.017,-3.1475 -0.05,-3.09322 -6.90818,5.59475 -12.24416,15.51098 -27.44782,27.26117 -45.54156,35.19693 -5.17244,2.26858 -11.18634,5.23777 -13.36421,6.59817 -8.83605,5.51941 -28.33601,5.12162 -34.553906,-0.7049 -1.34791,-1.26306 -1.50322,-1.76712 -0.54447,-1.76712 1.04328,0 1.07737,-0.22041 0.15343,-0.99183 -1.67415,-1.39779 -1.47517,-2.43031 0.41316,-2.14387 0.8806,0.13357 2.10565,-0.42789 2.72234,-1.2477 0.89921,-1.19539 0.77706,-1.65416 -0.61683,-2.31667 -0.95594,-0.45435 -2.95771,-1.70201 -4.44838,-2.77256 l -2.7103,-1.94646 2.65747,0.42415 c 1.46161,0.23328 4.6648,-0.21591 7.118206,-0.9982 4.86228,-1.55039 8.49918,-1.36445 15.35185,0.78486 7.21159,2.26188 7.96017,1.04197 1.08319,-1.7652 -8.96424,-3.65917 -4.19295,-3.54582 7.43459,0.17664 l 8.90947,2.85229 5.99929,-2.44102 c 9.20216,-3.74424 18.07498,-9.79985 28.78802,-19.64754 11.83135,-10.87567 19.98742,-19.73774 23.76638,-25.82362 l 2.82272,-4.54589 -0.14374,-25.209 c -0.12451,-21.83443 -0.42548,-26.48139 -2.24835,-34.71404 -1.15753,-5.22777 -2.38461,-12.75947 -2.72683,-16.73712 -0.34224,-3.97765 -0.89612,-7.2321 -1.23086,-7.2321 -0.33474,0 -3.26918,4.74219 -6.52097,10.53819 -7.5995,13.54536 -18.52102,28.62055 -29.79464,41.12616 -4.91441,5.45146 -9.23325,10.32993 -9.59744,10.84103 -0.36418,0.51112 0.65789,2.9287 2.27128,5.37241 3.05129,4.62162 3.96259,7.13302 1.61613,4.45378 -1.21273,-1.38472 -1.40439,-1.03654 -1.84679,3.35476 -0.34446,3.41916 -1.71352,7.02285 -4.53046,11.92529 l -4.03684,7.02546 -0.056,-4.08781 -0.056,-4.0878 -2.92221,3.84719 c -3.11306,4.09845 -8.92402,8.10411 -15.39172,10.60994 -6.04426,2.34177 -7.37242,1.86179 -2.29194,-0.8283 2.49167,-1.31931 4.85023,-2.83094 5.24124,-3.35917 0.83074,-1.12227 -10.48991,3.50686 -14.81523,6.05809 l -2.95645,1.74383 2.22718,-2.61146 2.22717,-2.61145 -3.72546,0.85919 c -4.196126,0.96773 -15.775336,0.44162 -17.242616,-0.78344 -0.62034,-0.51794 0.46318,-0.99176 3.06115,-1.33861 2.21178,-0.29529 4.0214,-0.83122 4.0214,-1.19096 0,-0.97477 -12.99755,-4.28555 -16.82432,-4.28555 h -3.31964 l 2.15245,-1.91295 c 2.8879,-2.56657 2.71081,-4.39354 -0.5699,-5.87955 -4.15097,-1.88019 -1.71071,-1.53446 2.83464,0.40161 2.23554,0.95222 5.35691,1.58888 7.09144,1.44642 l 3.09826,-0.25446 -5.72712,-3.28352 c -5.62227,-3.2234 -5.68032,-3.29654 -3.17111,-3.99487 3.3238,-0.92504 3.22742,-1.59495 -0.76593,-5.32373 -1.82706,-1.70602 -3.88757,-4.03169 -4.57891,-5.16816 -1.15976,-1.90651 -0.99855,-1.86573 2.0845,0.52736 3.66344,2.84357 8.81218,5.25831 11.21186,5.25831 2.3561,0 1.83495,-1.15646 -1.42915,-3.17134 -3.29457,-2.03368 -5.37251,-4.46613 -6.46971,-7.57348 -0.70708,-2.00249 -0.66963,-2.02163 1.2123,-0.6199 3.30931,2.46492 3.82069,1.72549 3.42971,-4.95914 -0.37959,-6.48973 0.59406,-8.00133 1.38641,-2.15242 0.77128,5.69331 1.40673,6.85475 4.47525,8.17961 4.41772,1.90737 7.27432,1.20438 3.25007,-0.79983 -1.70706,-0.85017 -3.82306,-2.80518 -4.70222,-4.34445 -2.08821,-3.65614 -2.02356,-3.91145 0.60168,-2.3762 3.57168,2.08873 5.55821,1.52774 8.9571,-2.52942 1.7583,-2.09883 3.686686,-4.38787 4.285306,-5.08674 0.85846,-1.00221 0.99197,-0.72207 0.63196,1.32592 -0.54521,3.10153 0.40792,6.75037 1.7633,6.75037 0.53409,0 0.99117,-1.20879 1.01573,-2.68621 0.0246,-1.47741 0.65659,-3.80201 1.40451,-5.16577 l 1.35986,-2.47958 0.0804,3.32882 c 0.0841,3.48119 2.52283,7.37244 4.1079,6.55452 0.50722,-0.26172 0.96239,-1.84868 1.01149,-3.52655 l 0.0893,-3.05069 0.89671,2.58226 c 0.49318,1.42024 1.56669,3.04651 2.38557,3.61393 1.25219,0.86768 1.48887,0.72787 1.48887,-0.87948 0,-1.84215 0.11148,-1.81596 3.08729,0.72532 4.57495,3.90691 6.47836,3.37846 2.85857,-0.79363 -2.93965,-3.38817 -3.90877,-7.56238 -1.98609,-8.5545 0.56332,-0.29068 0.98994,0.41836 0.98994,1.64531 0,2.62356 2.04395,6.07741 4.85229,8.19939 2.07157,1.56526 2.11137,1.55254 6.10159,-1.94961 11.95859,-10.49589 27.73908,-31.45916 37.36336,-49.63459 8.12193,-15.33822 15.70906,-36.25121 14.67754,-40.4568 -0.71401,-2.91116 1.23626,-39.92078 2.39579,-45.46378 1.30194,-6.22382 13.23054,-26.25169 20.45215,-34.33876 12.15292,-13.60935 26.2091,-21.397 46.27667,-25.63901 26.73315,-5.65102 48.59698,-7.04056 66.36397,-4.21771 4.90021,0.77855 13.83461,1.63659 19.85421,1.90677 11.57585,0.51954 15.28003,-0.17468 15.2984,-2.86717 0.0194,-2.85023 4.76581,-9.83442 9.00418,-13.24948 l 4.35037,-3.50532 -4.94971,2.14233 -4.94971,2.14234 3.95976,-2.87649 c 2.17788,-1.58207 6.40988,-4.50563 9.40445,-6.49681 5.95836,-3.96189 13.63968,-12.71585 20.72968,-23.62445 2.50911,-3.86049 5.5932,-7.59073 6.85351,-8.28941 l 2.29149,-1.27032 -1.66604,3.24918 c -0.91632,1.78705 -2.29122,4.73692 -3.05534,6.55527 l -1.3893,3.3061 2.9629,-2.89283 c 2.47182,-2.41337 10.8909,-14.26268 10.8909,-15.32823 0,-0.74363 -3.69981,0.89887 -6.87447,3.05186 -4.35136,2.95103 -5.03384,2.38969 -1.62771,-1.33879 2.31561,-2.53476 2.43056,-2.91493 0.88051,-2.91225 -5.58899,0.01 -14.29171,7.43064 -20.83266,17.76433 l -5.01715,7.92635 4.47386,-3.06082 4.47386,-3.06082 -2.43697,3.2317 c -1.34035,1.77744 -3.41944,5.09138 -4.62021,7.36432 -2.3041,4.3614 -5.58161,7.67283 -10.4916,10.60018 l -2.96982,1.77062 1.72342,-2.21888 c 0.94787,-1.22038 2.82494,-4.29846 4.17125,-6.84017 l 2.44784,-4.62129 -3.09917,1.8425 -3.09915,1.8425 1.59398,-2.42752 c 0.87669,-1.33512 2.93472,-4.84509 4.57341,-7.79992 3.17532,-5.72562 8.64738,-11.85726 9.97185,-11.17381 0.44009,0.22709 2.03039,-0.97825 3.534,-2.67853 1.50361,-1.70028 4.54151,-4.67214 6.75088,-6.60415 2.20936,-1.932 3.64276,-3.51273 3.1853,-3.51273 -2.20192,0 -7.54408,3.73342 -12.63335,8.82897 -3.09557,3.09936 -7.513,7.12296 -9.81654,8.94131 l -4.18825,3.3061 4.61935,-5.61864 c 2.54064,-3.09025 4.61934,-5.93422 4.61934,-6.31994 0,-0.38572 1.60594,-1.87858 3.56875,-3.31746 3.81178,-2.79431 3.94707,-4.48957 0.17443,-2.1855 -7.68603,4.69407 -9.09235,5.45694 -10.05972,5.45694 -0.5907,0 1.34041,-1.7667 4.29137,-3.926 4.02909,-2.94818 6.73695,-4.18985 10.87236,-4.98543 7.58076,-1.45839 19.56102,-7.61907 14.81631,-7.61907 -0.59679,0 -4.82879,1.70383 -9.40445,3.78629 -5.14155,2.34001 -8.3194,3.37705 -8.3194,2.71491 0,-0.58927 2.78421,-3.23682 6.18714,-5.88346 l 6.18713,-4.81207 -6.43462,2.39638 c -3.53904,1.31801 -7.10283,2.40102 -7.91954,2.40668 -0.8167,0.006 -2.82133,0.28049 -4.45473,0.61073 -1.92841,0.38988 -0.36627,-0.70558 4.45473,-3.12395 8.59799,-4.31302 15.83908,-9.30315 15.83908,-10.91535 0,-0.61582 -0.85072,-1.34512 -1.89049,-1.62065 -1.03977,-0.27553 -2.4392,-1.05299 -3.10985,-1.72767 -1.01818,-1.02431 -0.92448,-1.13222 0.56797,-0.65405 1.37664,0.44105 1.586,0.30297 0.91111,-0.60098 -0.48191,-0.64549 -1.00315,-1.85455 -1.15832,-2.6868 -0.23895,-1.28165 0.17739,-1.42893 2.72087,-0.9625 l 3.00298,0.55068 -1.97595,-2.75686 c -1.08677,-1.51627 -2.48211,-3.45615 -3.10076,-4.31083 -1.07152,-1.48033 -1.01564,-1.49013 1.17911,-0.20663 3.33259,1.94891 3.84327,1.71053 3.84327,-1.79398 0,-3.25391 1.87096,-7.58577 3.28122,-7.59705 0.4435,-0.003 1.86337,-1.05526 3.15525,-2.33713 1.2919,-1.28188 4.15872,-3.01208 6.37071,-3.84489 2.21201,-0.83281 4.02183,-1.85808 4.02183,-2.27837 0,-0.42029 -10.58,-5.06766 -23.51112,-10.32749 l -23.51112,-9.56332 4.45474,-1.61657 c 7.55531,-2.74173 53.63284,-17.63979 59.39652,-19.20444 2.99457,-0.81293 17.24973,-5.28239 31.67814,-9.93215 14.4284,-4.64976 28.01536,-8.91901 30.19323,-9.48724 2.17787,-0.56822 8.51046,-2.50125 14.07243,-4.29562 l 10.11266,-3.2625 11.66606,5.95716 c 6.41633,3.27644 14.78812,7.71355 18.60397,9.86024 3.81584,2.14668 13.77939,7.48164 22.1412,11.85545 19.18259,10.03383 34.94428,19.46736 34.20194,20.47022 -0.31402,0.42423 -2.15787,1.41177 -4.09743,2.19452 -1.93957,0.78276 -3.52754,1.60917 -3.52883,1.83646 -0.0247,4.34572 1.62953,24.60292 2.05674,25.18597 0.3238,0.44192 0.47049,2.17078 0.32598,3.8419 -0.14452,1.67114 0.22378,3.28947 0.81843,3.59632 0.59932,0.30925 1.00504,2.50299 0.91037,4.92223 -0.0939,2.40037 0.13174,4.77304 0.50152,5.2726 1.10419,1.49169 5.33611,28.41743 6.9751,44.37934 0.84019,8.18259 1.78184,17.36814 2.09254,20.41232 l 0.5649,5.53489 -3.76701,0.78792 c -2.07185,0.43336 -4.43522,0.78087 -5.25192,0.77224 -0.81671,-0.009 -2.2645,0.25438 -3.21732,0.58445 -0.98308,0.34056 -1.73239,0.23786 -1.73239,-0.23743 0,-0.46067 -0.96054,-0.62786 -2.13451,-0.37153 -2.04286,0.44602 -2.10837,0.27415 -1.52585,-4.00338 1.73763,-12.75972 1.85239,-29.81275 0.29704,-44.1426 -1.17478,-10.82359 -1.36447,-16.52325 -0.69615,-20.9175 0.50525,-3.32203 0.55445,-7.10026 0.10933,-8.39608 -0.52499,-1.52834 -0.37236,-3.0592 0.43446,-4.35761 0.87643,-1.41047 1.21378,-6.41626 1.14228,-16.95007 -0.0558,-8.22166 -0.34283,-15.15028 -0.63783,-15.39691 -0.85421,-0.71418 -44.61474,13.43279 -46.75036,15.11352 -0.82794,0.65159 7.19479,15.57763 10.40304,19.35451 1.092,1.28555 2.93271,2.68531 4.09048,3.11058 1.4817,0.54425 0.34625,0.65409 -3.83464,0.37092 -5.72408,-0.38769 -5.83187,-0.35945 -2.96983,0.77813 1.63341,0.64923 3.86078,1.22334 4.94971,1.2758 1.08894,0.0525 2.87083,0.43239 3.95977,0.84431 1.43825,0.54404 0.89661,0.64053 -1.97988,0.35268 l -3.95977,-0.39625 4.63221,1.4489 c 5.65933,1.77017 6.86601,2.66797 3.6998,2.75275 -1.70694,0.0457 -0.97425,0.50095 2.55735,1.58899 3.82648,1.17888 4.3881,1.55239 2.47485,1.64592 -1.51528,0.074 0.33446,0.83692 4.7707,1.96747 3.98506,1.01556 7.63101,2.36719 8.1021,3.00361 0.95513,1.29031 0.22058,5.65826 -1.20752,7.18053 -0.50896,0.54251 -1.57809,3.33203 -2.37587,6.19893 -0.79777,2.8669 -2.54604,6.59933 -3.88504,8.29429 -1.339,1.69496 -2.43454,3.31079 -2.43454,3.59072 0,0.27994 2.58456,3.54236 5.74347,7.24981 10.35721,12.15579 12.09589,15.32464 6.02949,10.98922 -4.46408,-3.19032 -10.6014,-5.9153 -11.54614,-5.12652 -0.33129,0.2766 0.48447,1.13578 1.81279,1.9093 1.32832,0.77352 3.97429,2.62966 5.87993,4.12477 l 3.46479,2.71837 -4.7843,-1.6642 c -2.63135,-0.91531 -5.06472,-1.66421 -5.40746,-1.66421 -0.34274,0 1.42459,1.76669 3.92741,3.92599 3.95121,3.40889 7.5408,7.64535 6.47797,7.64535 -0.19306,0 -2.73929,-1.48774 -5.6583,-3.30609 -5.10322,-3.17898 -7.91953,-4.10098 -7.91953,-2.59268 0,0.7557 7.06986,6.4243 12.86924,10.31852 1.90564,1.27961 2.49177,1.92446 1.30251,1.43299 -4.65226,-1.92259 -5.33632,-1.16743 -2.74687,3.0324 4.5469,7.37466 6.59805,16.0534 7.12997,30.16816 0.35039,9.29763 0.1739,13.01776 -0.61762,13.01776 -0.60953,0 -1.10822,-0.6708 -1.10822,-1.49066 0,-4.00613 -17.32322,-24.95813 -20.6355,-24.95813 -1.67943,0 -1.45323,0.85356 1.8266,6.89299 1.63341,3.00772 2.96983,5.91065 2.96983,6.45096 0,1.66841 -6.84209,-5.38799 -6.92802,-7.14501 -0.0688,-1.40742 -0.29985,-1.31605 -1.55463,0.61492 -1.31553,2.02446 -1.30343,2.543 0.11264,4.82933 1.85093,2.98845 1.19039,4.0177 -1.63349,2.54527 -1.86738,-0.97369 -1.91897,-0.91924 -0.81281,0.85782 0.64962,1.04361 3.28527,4.31506 5.857,7.26989 9.30851,10.69515 11.74296,16.02149 12.01281,26.28284 l 0.1239,4.71183 0.79266,-3.71936 c 1.39045,-6.52435 1.00181,-11.34433 -1.4303,-17.73879 -1.30334,-3.42674 -2.17155,-6.23042 -1.92936,-6.23042 0.57068,0 3.36958,5.48797 4.42609,8.67851 0.54117,1.63428 0.68823,0.0846 0.43138,-4.54589 l -0.38968,-7.02546 1.81971,2.89284 c 2.85738,4.54244 3.42183,13.31944 1.5109,23.49406 -2.37359,12.63805 -3.68174,15.81916 -12.73062,30.9581 l -8.09269,13.5392 v 7.95045 c 0,6.13327 0.41265,8.58197 1.8054,10.71346 0.99296,1.51966 1.62068,2.91723 1.39493,3.10571 -1.17364,0.9799 -7.52288,-3.99794 -10.00384,-7.84307 -2.07387,-3.21419 -3.07478,-4.10294 -3.69713,-3.28283 -1.26034,1.66084 -0.98583,7.29447 0.52802,10.83622 1.62791,3.80858 1.16999,3.93582 -1.4873,0.41326 l -2.02637,-2.68621 0.30852,4.2906 0.30853,4.2906 -2.35033,-1.81103 -2.35033,-1.81102 0.68266,1.85448 c 0.50291,1.36618 0.33192,1.7421 -0.64942,1.42769 -1.82342,-0.5842 -7.07759,9.78877 -9.10094,17.96738 -2.982,12.05358 -1.36481,27.04724 3.6512,33.85191 2.63122,3.5695 7.59929,7.15802 11.35043,8.19861 2.15379,0.59748 1.72271,0.67095 -2.05222,0.34977 -2.62829,-0.22362 -7.31704,-1.2626 -10.41944,-2.30886 l -5.64073,-1.90228 0.0102,6.23448 c 0.008,4.76577 -0.48031,7.00135 -2.07209,9.48976 l -2.08231,3.2553 -2.61752,-3.46193 c -1.43958,-1.90405 -3.01775,-3.46192 -3.50699,-3.46192 -1.4707,0 -6.20116,5.13338 -8.21192,8.91139 -1.03595,1.94644 -2.14384,6.13128 -2.46199,9.29966 l -0.57844,5.76066 -4.20614,-2.87766 c -3.20038,-2.18956 -4.44558,-2.63454 -5.20742,-1.86093 -1.14097,1.15862 -3.01337,6.6242 -6.15288,17.96049 -1.196,4.31859 -5.68497,15.59329 -9.9755,25.05489 -4.29052,9.46159 -8.94933,20.80564 -10.35291,25.209 -1.40359,4.40336 -3.92241,11.51101 -5.59737,15.79477 -3.03025,7.74994 -3.04194,7.85052 -2.35147,20.23076 0.71732,12.86138 2.06216,17.40964 5.37141,18.1661 0.90027,0.20579 3.81092,0.62146 6.4681,0.9237 7.339,0.83478 9.29155,1.92263 12.12275,6.75415 2.1549,3.67736 2.51524,5.24465 2.15689,9.38105 -0.48588,5.60831 -2.55554,8.55448 -7.81597,11.12608 -2.87849,1.40716 -5.47094,1.66541 -18.51131,1.84403 -11.65113,0.15959 -15.66138,0.49854 -17.31082,1.46314 -1.7218,1.0069 -5.28767,1.23661 -18.01307,1.16038 -8.72645,-0.0523 -17.64818,-0.40278 -19.82605,-0.77889 z m 47.75011,-7.48056 c 3.23324,-5.22746 -0.38367,-18.20836 -5.7404,-20.60193 -2.04761,-0.91496 -2.15589,-0.8452 -1.50159,0.96742 3.20481,8.87843 3.65747,11.24106 3.05488,15.9446 -0.35365,2.76042 -0.89356,5.7484 -1.19981,6.63996 -0.52579,1.53068 -0.42529,1.54873 1.80364,0.324 1.29825,-0.71335 2.91072,-2.18667 3.58328,-3.27405 z m -70.333,1.53567 c 0.50775,-0.56823 1.74022,-2.60755 2.73882,-4.53182 l 1.81564,-3.49867 -2.70702,-5.0363 c -1.48888,-2.76997 -2.42705,-5.27006 -2.08486,-5.55578 0.3422,-0.2857 1.94579,-0.10233 3.56353,0.4075 2.55471,0.80511 3.07629,0.71647 3.96777,-0.67431 1.5499,-2.41795 0.31589,-3.22015 -4.95355,-3.22015 -6.66892,0 -8.90915,1.73779 -10.48836,8.13599 -1.479,5.99222 -0.65132,9.56152 2.9747,12.82819 2.69058,2.42393 3.8095,2.67166 5.17333,1.14535 z m 18.55894,-3.04353 c 2.60704,-2.27196 2.77208,-2.83714 2.63726,-9.03122 -0.0791,-3.63418 0.27009,-6.82117 0.77598,-7.08222 1.402,-0.72345 0.1283,-3.65551 -1.71826,-3.95541 -0.89693,-0.14567 -3.04301,-0.12837 -4.76905,0.0384 -3.64378,0.35218 -4.7151,2.02337 -6.18159,9.64291 -0.52495,2.72753 -1.25955,6.16647 -1.63244,7.64209 -0.62421,2.47018 -0.41308,2.77895 2.6623,3.89364 4.60473,1.66901 5.06712,1.60446 8.2258,-1.14823 z m 37.19035,0.0684 c 1.55149,-1.29536 3.12595,-3.71295 3.49882,-5.37241 0.68454,-3.04654 1.85382,-3.8835 2.77181,-1.98404 0.27462,0.56824 0.53448,-0.37355 0.57747,-2.09286 0.17407,-6.96244 -4.9423,-12.17477 -12.54972,-12.78507 -6.04948,-0.48533 -8.29851,1.12681 -5.87687,4.2126 0.84057,1.0711 1.67285,3.21159 1.8495,4.75665 0.23211,2.03008 0.7611,2.74964 1.9073,2.5944 1.3715,-0.18575 1.47499,0.37342 0.76485,4.13262 -0.45169,2.39109 -1.08946,5.37026 -1.41727,6.62038 -0.55188,2.10461 -0.36461,2.27295 2.52861,2.27295 2.11522,0 4.03591,-0.76085 5.9455,-2.35522 z m -18.90363,-4.32455 1.39352,-5.30484 1.42404,2.87523 c 1.35218,2.73015 1.49416,2.79517 2.81373,1.28844 2.04699,-2.3373 1.73506,-8.63975 -0.58484,-11.81658 -3.61799,-4.9544 -11.01634,-7.31559 -15.9769,-5.09903 -1.8865,0.84296 -1.9022,0.98766 -0.32523,2.99711 1.66507,2.12173 1.62576,7.64952 -0.11492,16.16039 -0.60959,2.98048 -0.52525,3.09996 2.19672,3.11213 1.55686,0.007 3.49886,0.37285 4.31556,0.81309 2.53766,1.36791 3.41795,0.45724 4.85832,-5.02594 z m -216.33467,1.61729 c 0.34029,-1.42059 0.61871,-3.48819 0.61871,-4.59467 0,-1.13071 0.43354,-1.78806 0.98994,-1.50095 0.54447,0.28095 1.00411,2.44153 1.02142,4.80129 0.029,3.95233 0.14604,4.16403 1.48492,2.68609 3.44904,-3.80729 0.72941,-14.01074 -3.9985,-15.00148 -3.24283,-0.67954 -4.51518,0.32512 -6.13424,4.84365 -1.81087,5.05385 -1.60007,6.43637 1.37699,9.03079 3.3678,2.93493 3.88131,2.90564 4.64076,-0.26472 z m 14.99782,-4.86742 c 1.8736,-3.85763 3.41404,-7.65619 3.42319,-8.44124 0.033,-2.82636 -4.11893,-4.03225 -12.99012,-3.77284 -6.67249,0.1951 -7.70128,0.38361 -5.30715,0.97244 5.19317,1.27725 6.15799,2.59278 6.92146,9.43749 0.73294,6.57093 1.90805,9.55222 3.58155,9.08647 0.5305,-0.14764 2.49747,-3.42468 4.37107,-7.28232 z m -27.43887,-1.1772 0.30447,-3.88219 -3.25238,0.26254 c -3.00978,0.24297 -3.31069,0.53998 -4.03422,3.98191 -0.43001,2.04565 -0.53212,4.59157 -0.22692,5.65762 l 0.55493,1.93825 3.17483,-2.03796 c 2.65334,-1.70322 3.22484,-2.67565 3.47929,-5.92017 z m 280.73315,5.66707 c 0.97761,-2.12705 0.68631,-8.37661 -0.49101,-10.53398 -1.39118,-2.54926 -7.66458,-5.51565 -11.66465,-5.51565 -2.84831,0 -4.62031,1.61611 -1.8451,1.68277 1.93544,0.0464 6.29414,3.43662 7.9318,6.16921 0.81731,1.36377 1.80059,4.0603 2.18506,5.99231 0.70603,3.54784 2.73688,4.70099 3.8839,2.20534 z m -157.73687,-2.06077 c 2.63634,-3.09123 2.24821,-7.47644 -1.05695,-11.9415 -2.60279,-3.51618 -5.57666,-5.27539 -10.47811,-6.19835 -5.49226,-1.03422 -9.27284,0.87701 -3.94377,1.99372 2.86842,0.60109 6.51639,5.21797 6.51639,8.24717 0,2.32292 0.90208,2.74466 2.68558,1.25557 2.20044,-1.83719 3.49073,0.17898 3.03714,4.74575 -0.24251,2.44162 -0.10051,4.43931 0.31556,4.43931 0.41607,0 1.73194,-1.14375 2.92416,-2.54167 z m 170.21153,-1.38432 c -0.0131,-9.29594 -3.70981,-13.43103 -12.00728,-13.43103 -4.84594,0 -6.4386,1.11173 -2.92611,2.04252 2.55532,0.67715 10.60269,8.95549 12.12703,12.47511 1.71646,3.9632 2.81287,3.53869 2.80636,-1.0866 z m -201.00048,-1.85968 c 0.57075,0 1.03773,-1.55145 1.03773,-3.44765 0,-3.8934 -2.15086,-6.47065 -5.40012,-6.47065 -5.72541,0 -6.02522,5.90241 -0.66418,13.07563 l 1.43312,1.91755 1.27786,-2.53744 c 0.70282,-1.39559 1.74484,-2.53744 2.31559,-2.53744 z m 8.46229,0 c 1.57708,-1.37438 3.87967,-2.47958 5.166,-2.47958 3.11037,0 3.74117,-1.77619 1.82692,-5.14424 -1.81728,-3.19746 -6.09693,-5.60058 -9.97391,-5.60058 -2.21133,0 -2.52833,0.25094 -1.82714,1.44642 0.4666,0.79553 0.81523,4.32892 0.77473,7.85199 -0.0405,3.52306 0.21027,6.40556 0.55725,6.40556 0.34699,0 1.91125,-1.11581 3.47615,-2.47957 z m 11.77339,0.34566 c 1.00663,-2.19018 0.67618,-3.65176 -0.8256,-3.65176 -1.95735,0 -2.78372,1.34521 -2.0355,3.3135 0.75211,1.97849 2.0374,2.13045 2.8611,0.33826 z m -71.84,-4.0418 2.28994,2.45635 -0.63582,-2.47957 c -0.72603,-2.83137 -4.10599,-6.19894 -6.22176,-6.19894 -1.00865,0 -1.24161,0.54593 -0.79355,1.85968 0.34885,1.02283 0.93883,2.97549 1.31106,4.33926 l 0.6768,2.47957 0.5417,-2.45635 0.54171,-2.45634 z m -49.11091,-4.66342 c 1.5254,-0.68161 3.07033,-0.6683 5.9467,0.0512 3.05805,0.76497 4.20735,0.74933 5.39467,-0.0734 1.33568,-0.92553 1.29901,-1.11437 -0.31961,-1.64619 -3.22857,-1.06078 -7.67483,-0.69023 -11.23282,0.93613 -1.90564,0.87106 -3.10141,1.59935 -2.65727,1.6184 0.44415,0.0191 1.7349,-0.37973 2.86833,-0.88619 z m 272.45771,-6.01541 c 1.73463,-1.94379 2.0252,-3.42122 1.94046,-9.86618 -0.0548,-4.16903 -0.68594,-11.40707 -1.40248,-16.08452 l -1.30282,-8.50448 3.6112,-7.61275 c 8.59671,-18.12266 19.03117,-41.47277 22.97743,-51.41858 2.3448,-5.90965 5.208,-12.74584 6.36265,-15.19153 1.15466,-2.44569 1.91672,-4.59921 1.69347,-4.7856 -0.22324,-0.18639 -2.35193,1.62866 -4.73041,4.03345 -2.37849,2.40479 -8.56642,8.0917 -13.75096,12.63759 -10.58112,9.27769 -20.55984,20.38974 -24.24443,26.998 -2.14947,3.85506 -2.46008,5.5608 -2.46853,13.55654 -0.005,5.03063 0.46423,11.28702 1.04346,13.90309 1.35862,6.13625 0.63718,8.61733 -3.75009,12.89676 l -3.58058,3.49256 -0.11722,11.99222 c -0.11102,11.35877 -0.0106,12.02535 1.90134,12.61946 1.11021,0.34498 4.24593,1.37788 6.96827,2.29534 5.92201,1.99575 6.2413,1.96107 8.84924,-0.96137 z m -250.51271,0.96526 6.81197,0.22015 -0.70564,-3.53015 c -2.27929,-11.40292 -2.37216,-13.8498 -1.01039,-26.62114 0.77858,-7.30185 1.42475,-14.016 1.43595,-14.92032 0.0131,-1.05629 -1.52378,0.27758 -4.29796,3.73027 -4.97051,6.18618 -6.3773,7.30584 -10.22003,8.13411 -1.88894,0.40714 -3.39215,1.62546 -4.66982,3.78479 -2.70725,4.57541 -5.49415,13.96934 -6.2071,20.92262 -0.52876,5.15682 -0.35459,6.23957 1.24039,7.71107 1.60768,1.48321 2.45365,1.62081 6.3331,1.03016 2.46266,-0.37493 7.54295,-0.58264 11.28953,-0.46156 z m 193.15632,-0.68877 c 2.34479,-0.82044 2.59521,-1.11311 1.18987,-1.39057 -0.97898,-0.19328 -2.48052,0.13401 -3.33676,0.72733 -1.03266,0.71554 -0.85124,0.11239 0.53882,-1.79143 1.25598,-1.7202 2.12843,-4.36041 2.17749,-6.58954 l 0.0819,-3.71936 1.98801,4.76198 c 2.26847,5.43381 4.70389,7.06899 8.42188,5.65461 3.21235,-1.22204 5.91569,-1.13237 11.07319,0.3673 2.37347,0.69014 5.04631,1.09122 5.93965,0.89131 0.89334,-0.19991 2.80729,-0.5823 4.25322,-0.84974 l 2.62897,-0.48627 -1.83053,-4.02229 c -1.00679,-2.21226 -2.77556,-7.14213 -3.93059,-10.95527 -1.44129,-4.75814 -3.08919,-7.97009 -5.25318,-10.23908 -3.04607,-3.19386 -3.17485,-3.65025 -3.79332,-13.44308 l -0.6402,-10.13698 -5.49519,-9.69961 c -9.81392,-17.32265 -15.32188,-30.15763 -20.45691,-47.66995 -7.60793,-25.94583 -12.42866,-36.4272 -21.68225,-47.14225 -4.15128,-4.80691 -10.92131,-11.48175 -12.00833,-11.83951 -0.41563,-0.13679 -1.48885,1.53692 -2.38494,3.71936 -0.89609,2.18244 -2.96127,6.01372 -4.5893,8.51395 l -2.96006,4.54589 0.63404,-3.3061 c 2.49993,-13.03559 2.47245,-13.83732 -1.05294,-30.7162 -2.15521,-10.31868 -1.72092,-11.5232 1.40246,-3.88981 2.67367,6.53434 5.31922,10.50085 8.45121,12.67109 1.89897,1.31584 1.89844,1.10279 -0.008,-3.3768 -2.34853,-5.51744 -10.07865,-28.03526 -10.74674,-31.30522 -0.39972,-1.95639 1.11203,-0.01 4.67005,6.01279 2.89359,4.8981 6.06894,9.5473 7.05631,10.33156 1.72656,1.37139 1.772,1.23624 1.18778,-3.53322 -0.3341,-2.72753 -1.94351,-8.49254 -3.57648,-12.81113 -1.63296,-4.31859 -2.97399,-7.9825 -2.98007,-8.142 -0.006,-0.15951 1.65948,1.71876 3.70123,4.17393 7.32077,8.80308 9.66477,11.34454 10.4916,11.37542 0.4618,0.0173 0.51899,-2.29323 0.12708,-5.13441 -0.68409,-4.9593 -10.60067,-26.00478 -15.27482,-32.41702 -7.12618,-9.77604 -8.23819,-31.92237 -3.51268,-69.95697 1.07211,-8.62914 2.08052,-12.67228 4.3291,-17.35702 4.17691,-8.7023 10.06385,-18.74858 13.39633,-22.8613 4.38678,-5.41388 2.41582,-5.0153 -3.50867,0.70955 -2.91802,2.81968 -7.86695,7.52769 -10.99765,10.46224 -6.36092,5.96241 -7.54353,8.35035 -2.19292,4.42797 1.92458,-1.41086 3.69998,-2.5652 3.94532,-2.5652 0.24535,0 -0.42181,1.83838 -1.48256,4.08529 -5.11494,10.83453 -7.6784,34.77812 -10.0225,93.61331 -0.51248,12.863 -1.17645,26.54873 -1.47548,30.41273 -0.38513,4.97654 0.16161,11.53353 1.87469,22.48301 2.97264,19.0002 2.70504,20.67608 -5.19548,32.53779 -3.1829,4.77874 -6.07495,9.96981 -6.4268,11.53571 -0.85648,3.81179 0.7154,8.30707 4.62898,13.23797 2.976,3.74962 3.2782,4.75328 3.84269,12.76223 0.62572,8.87791 2.79157,14.76567 5.72476,15.56246 1.14715,0.31163 1.25762,-0.60939 0.63729,-5.31277 -0.41316,-3.12936 -1.08928,-9.40911 -1.50291,-13.95499 -0.41363,-4.54589 -1.47999,-9.64807 -2.36969,-11.33817 -0.8897,-1.69011 -1.61763,-4.01471 -1.61763,-5.16578 0,-7.76407 7.38533,8.66185 9.46431,21.04983 2.14662,12.79108 7.29759,29.19935 12.32467,39.25993 2.27149,4.54588 7.41694,14.9601 11.43434,23.14269 6.3598,12.95354 7.87686,15.3317 11.73145,18.39017 5.64174,4.47652 9.67203,4.75827 14.00905,0.97933 2.65634,-2.31452 2.9371,-3.12326 3.24951,-9.36038 0.28231,-5.63629 -0.0889,-7.8613 -2.12817,-12.75731 -1.35857,-3.26168 -2.29953,-5.93032 -2.09103,-5.93032 0.96547,0 5.36669,8.54104 7.68001,14.90386 4.07444,11.20686 4.28889,15.02599 1.25574,22.36315 -1.42101,3.4374 -2.58365,7.24468 -2.58365,8.46062 0,1.21594 -0.39195,2.2108 -0.871,2.2108 -0.47906,0 -2.71878,-2.04335 -4.97717,-4.54077 -3.86303,-4.27194 -9.98483,-7.8571 -13.41626,-7.8571 -1.24976,0 -1.53997,1.30278 -1.61108,7.23209 -0.0477,3.97765 -0.39023,9.09178 -0.76117,11.36472 -0.62559,3.8333 -0.75911,3.44417 -1.84335,-5.37241 -1.19025,-9.6786 -2.47976,-13.63196 -8.15534,-25.00237 -3.02442,-6.05911 -5.57667,-8.59955 -4.56701,-4.54589 0.25475,1.02282 0.74064,4.46323 1.07973,7.64535 1.0075,9.45441 3.34353,21.6401 4.58437,23.91388 0.6368,1.16691 1.75453,2.12165 2.48384,2.12165 0.9808,0 1.326,1.49485 1.326,5.74214 v 5.74213 l 8.662,-0.2872 c 4.76409,-0.15795 9.99841,-0.7548 11.63182,-1.32633 z M 218.5953,554.64178 c 1.49568,-1.47741 3.49158,-4.17395 4.43533,-5.99231 1.68538,-3.24725 4.66698,-22.37342 3.62363,-23.24454 -0.29285,-0.24449 -1.26978,2.46792 -2.17097,6.02759 -2.39925,9.47701 -5.32976,17.46796 -8.0492,21.94863 -2.76772,4.5602 -1.76895,5.14277 2.16121,1.26063 z m 216.88151,-6.0861 c 1.93835,-2.12179 2.6864,-3.85697 2.58334,-5.9923 -0.0798,-1.65312 -0.28259,-7.46891 -0.45066,-12.92397 -0.27269,-8.85045 -0.4921,-9.90594 -2.03799,-9.8035 -1.2367,0.082 -1.7324,-0.49378 -1.7324,-2.0121 0,-2.98097 -3.05168,-11.74036 -4.09022,-11.74036 -0.47272,0 -0.85949,-0.5579 -0.85949,-1.23979 0,-2.35033 -1.67277,-1.22819 -4.39557,2.94864 -1.50168,2.30363 -2.93954,4.01375 -3.19523,3.80027 -0.2557,-0.21348 -0.0149,-2.42049 0.53505,-4.90446 0.96895,-4.37627 0.61018,-8.04338 -0.78691,-8.04338 -0.37519,0 -2.2116,0.94211 -4.08091,2.09358 l -3.39875,2.09359 -1.35144,-3.38504 c -0.74329,-1.86176 -1.50754,-3.25468 -1.69835,-3.09536 -1.31074,1.09436 2.4381,13.20893 7.51547,24.28663 3.3109,7.22364 7.6526,17.13221 9.6482,22.01904 1.99561,4.88683 3.95217,8.88514 4.34792,8.88514 0.39575,0 1.94732,-1.34398 3.44794,-2.98663 z m -294.36389,-0.0257 c 7.25748,-3.11371 14.66021,-8.07799 24.65772,-16.53547 15.52831,-13.13632 30.44127,-29.73347 29.29532,-32.60379 -0.19051,-0.4772 -1.40985,0.74046 -2.70962,2.7059 -4.97103,7.51689 -14.75649,17.97736 -25.19527,26.93326 -11.82114,10.14189 -18.20925,14.57955 -26.44139,18.36811 -5.54223,2.55063 -5.20123,3.53221 0.39324,1.13199 z m 295.50482,-34.61645 c -0.30479,-0.25448 -0.85833,0.20424 -1.23008,1.01937 -0.53722,1.17797 -0.42352,1.2729 0.55417,0.46269 0.67655,-0.56066 0.98071,-1.22759 0.67591,-1.48206 z m 26.32224,-31.78985 c 6.7545,-11.02782 7.94721,-14.80692 7.95917,-25.21849 0.0159,-13.82364 -3.68258,-23.2408 -14.27444,-36.34613 -2.82459,-3.49487 -4.87525,-6.57171 -4.557,-6.83742 0.31823,-0.2657 -4.10797,-8.1391 -9.836,-17.49644 -5.72804,-9.35733 -9.40282,-15.90105 -8.16619,-14.54159 3.78389,4.15968 7.93535,7.93309 8.34844,7.58818 0.21551,-0.17994 -2.25694,-4.56268 -5.49434,-9.73943 -3.2374,-5.17675 -6.59133,-11.43244 -7.45317,-13.90153 -1.99696,-5.72106 -1.9989,-15.76285 -0.005,-26.96723 0.85898,-4.82741 1.35811,-8.94716 1.10918,-9.15499 -1.16302,-0.97104 -8.80701,19.50079 -9.30023,24.90752 -0.4468,4.89792 0.56573,15.71327 2.2053,23.55595 0.23758,1.13647 -0.4529,-0.12503 -1.53442,-2.80332 -5.24045,-12.97762 -6.26469,-32.34039 -2.48494,-46.97645 0.90722,-3.51297 1.48699,-7.4183 1.28837,-8.67851 -0.3468,-2.20032 -0.43303,-2.15046 -2.17169,1.25574 -0.99579,1.95086 -1.94465,3.43505 -2.10856,3.2982 -0.1639,-0.13685 0.30447,-2.6593 1.04083,-5.60544 0.73636,-2.94614 1.19978,-5.47272 1.02982,-5.61462 -0.60059,-0.50145 -4.37281,5.26537 -6.64622,10.16051 -1.96472,4.23046 -2.28805,6.3558 -2.20049,14.46418 0.0851,7.8864 0.73545,11.75705 3.81862,22.72943 6.73474,23.96753 17.11027,40.81276 38.69038,62.81588 4.01264,4.09129 8.39563,9.312 9.73998,11.60157 3.81588,6.49885 5.84969,16.50948 5.34136,26.29074 -0.50853,9.78515 -2.11815,14.05172 -9.53702,25.27956 -2.80142,4.23971 -5.07539,7.93969 -5.05326,8.22217 0.1166,1.48853 6.50026,-6.16309 10.25175,-12.28804 z m -13.40002,-70.05741 c -2.848,-2.87065 -4.05467,-4.33926 -3.56529,-4.33926 0.27428,0 1.68791,1.30178 3.14142,2.89284 2.69731,2.95258 3.02393,4.06714 0.42387,1.44642 z M 225.5227,482.73413 c 6.56663,-11.23231 8.19648,-17.80925 6.114,-24.67198 -1.87554,-6.18077 -3.53488,-6.11717 -9.05981,0.34722 -6.56027,7.67577 -7.79219,10.59556 -7.90913,18.74572 -0.0805,5.61122 0.33636,7.81576 2.0709,10.95145 1.19444,2.1593 2.43638,3.92599 2.75986,3.92599 0.32348,0 3.03437,-4.18428 6.02418,-9.2984 z m -14.66987,0.41326 c -0.44971,-7.05016 -0.95803,-8.83436 -4.06202,-14.25755 l -3.54797,-6.19894 0.53646,6.6122 c 0.29504,3.63671 1.00127,8.65785 1.56938,11.15809 1.00504,4.42318 4.18856,10.74482 5.41098,10.74482 0.33397,0 0.37589,-3.62638 0.0932,-8.05862 z m 263.53702,-5.16578 c 3.65857,-5.14855 6.58079,-11.11049 10.93818,-22.31617 13.90672,-35.76317 14.93418,-47.53459 6.42071,-73.56069 -1.85878,-5.68236 -3.67957,-11.92053 -4.04621,-13.86261 -0.83251,-4.40978 -2.0726,-5.26551 -1.68608,-1.16349 0.2856,3.0309 0.27712,3.0256 -2.43426,-1.52333 -1.49646,-2.51064 -3.2303,-5.6721 -3.85296,-7.02546 l -1.13212,-2.46064 -0.10531,2.96725 c -0.0893,2.51713 1.50025,8.63911 4.46736,17.20521 1.61832,4.67214 -1.64793,0.38842 -5.60814,-7.3551 -4.38521,-8.57457 -6.30505,-10.50175 -3.55017,-3.56376 1.43517,3.61439 1.43584,3.82242 0.007,2.31774 -0.86311,-0.90917 -3.52714,-4.97348 -5.92008,-9.03178 -3.66084,-6.20862 -4.35079,-6.96719 -4.35079,-4.78352 0,4.3478 3.71029,11.20556 9.99193,18.46814 12.9069,14.92246 17.12998,23.627 17.19093,35.43361 0.0442,8.55654 -1.14332,17.35702 -2.34208,17.35702 -0.41539,0 -2.19529,-4.55545 -3.95533,-10.12322 -1.76005,-5.56778 -4.99641,-14.02933 -7.1919,-18.80344 -4.125,-8.96984 -16.74051,-31.62075 -17.33491,-31.12448 -0.18494,0.15442 1.4134,3.40786 3.55188,7.22988 2.13847,3.82203 4.60108,9.26178 5.47246,12.08835 0.87137,2.82655 1.8106,5.80204 2.08716,6.61219 0.98658,2.89005 -3.78012,-6.16272 -9.54283,-18.12344 -6.54501,-13.58441 -9.78932,-23.63779 -9.79968,-30.36698 -0.005,-3.40905 -0.28533,-4.27213 -1.15164,-3.54883 -0.72529,0.60556 -1.17867,4.52726 -1.23742,10.7035 -0.0783,8.22919 0.26503,10.5847 2.20379,15.12017 3.04231,7.11709 10.79273,20.66979 17.99129,31.46032 3.2035,4.802 8.15292,13.5425 10.9987,19.42333 8.07109,16.67899 7.80704,21.53019 -2.5424,46.71029 -4.92035,11.97118 -10.31623,22.07997 -14.05209,26.32551 l -2.59767,2.95209 4.06,-3.3061 c 2.23299,-1.81835 6.30652,-6.46756 9.05229,-10.33156 z m 7.94125,0.19359 c -0.0108,-3.36495 -0.29346,-4.37992 -0.97478,-3.49969 -0.5278,0.68189 -0.97623,2.3556 -0.99653,3.71936 -0.0203,1.36377 -0.92028,4.15329 -1.99996,6.19894 l -1.96305,3.71936 2.97473,-2.69925 c 2.59042,-2.3505 2.97279,-3.31158 2.95959,-7.43872 z m -33.88159,-3.39531 c 0.44377,-5.17842 0.0449,-6.63788 -5.57566,-20.40451 -3.32949,-8.15494 -7.35455,-19.41362 -8.94458,-25.01928 -1.59003,-5.60568 -3.19099,-10.44085 -3.55769,-10.74482 -0.7991,-0.66246 0.36111,12.16142 1.51084,16.69945 0.44608,1.76068 0.57568,3.71334 0.28802,4.33925 -0.28768,0.62591 -0.0439,1.13802 0.54174,1.13802 0.58642,0 0.78079,0.6179 0.43266,1.37537 -0.45957,0.99992 -0.2734,1.19027 0.68197,0.69728 0.98584,-0.5087 1.17457,-0.23257 0.75552,1.10535 -0.30722,0.98088 -0.22191,1.6097 0.18958,1.39737 0.4115,-0.21234 2.26321,3.78546 4.11494,8.884 3.04101,8.37312 3.36185,10.2207 3.31601,19.0952 -0.0462,8.94232 0.0655,9.57358 1.24364,7.02546 l 1.29439,-2.79968 -0.39585,4.04653 -0.39586,4.04653 2.01119,-2.65209 c 1.30649,-1.72283 2.17865,-4.60632 2.48914,-8.22943 z m -14.35991,4.59206 c 3.40656,-5.34732 3.00319,-17.79577 -0.96905,-29.90544 -8.84517,-26.9653 -9.27964,-28.69762 -9.3739,-37.37555 -0.0505,-4.64594 -0.43542,-8.26984 -0.85546,-8.05309 -0.42004,0.21674 -1.07588,3.17556 -1.45744,6.57516 -0.75903,6.76291 1.14611,20.38114 4.55668,32.57175 1.06829,3.81847 1.77539,7.08207 1.57133,7.25245 -0.38902,0.32481 -5.27442,-10.38978 -8.00388,-17.55401 -2.41855,-6.3482 -5.23827,-19.44583 -6.61682,-30.73525 -0.67999,-5.56871 -1.54352,-10.12493 -1.91893,-10.12493 -1.06488,0 -1.90873,5.57154 -1.92068,12.6813 -0.0221,13.15524 6.00304,30.62018 15.26523,44.24888 5.73065,8.43228 7.79659,15.52079 7.25586,24.89577 -0.22286,3.864 -0.78196,7.73736 -1.24243,8.60746 -1.59438,3.0127 1.42427,0.50264 3.70949,-3.0845 z m 60.65773,-9.38265 c 1.39943,-3.10494 4.35849,-8.43487 6.57568,-11.84428 8.15551,-12.5409 11.8025,-25.95163 11.57564,-42.56602 l -0.12415,-9.09178 -1.28031,7.02546 c -0.70417,3.86401 -1.33433,8.69918 -1.40036,10.74483 l -0.12005,3.71936 -2.93392,-5.29559 c -2.85433,-5.15193 -5.13354,-6.8287 -2.78807,-2.05114 1.78152,3.62887 1.46902,16.45117 -0.54015,22.1626 -0.94757,2.69367 -3.948,8.59972 -6.66762,13.12456 -4.75899,7.91789 -7.80626,15.86084 -9.09904,23.71736 l -0.61203,3.71936 2.43498,-3.85969 c 1.33924,-2.12283 3.57997,-6.40009 4.9794,-9.50503 z m 4.79394,11.09178 c 0.3283,-1.02283 0.58945,-2.78952 0.58033,-3.92599 -0.0213,-2.64558 -1.39766,-0.76649 -2.27034,3.09946 -0.68029,3.01369 0.76164,3.71889 1.69001,0.82653 z m 12.81769,-9.09177 c -0.57331,-4.6724 1.07519,-11.36472 2.79945,-11.36472 0.58174,0 0.829,-0.49761 0.54948,-1.10579 -0.27953,-0.60818 0.14495,-3.30472 0.94329,-5.9923 1.75186,-5.89764 3.06976,-31.74857 1.61856,-31.74857 -0.57327,0 -1.22302,4.72838 -1.5617,11.36472 -0.37076,7.26463 -1.26677,13.45202 -2.48362,17.15038 -1.04698,3.18212 -2.72743,8.26422 -3.73433,11.29355 -1.75846,5.29052 -1.76192,5.69007 -0.0875,10.12492 0.95874,2.53939 1.91095,4.61706 2.11602,4.61706 0.20507,0 0.13326,-1.95266 -0.15959,-4.33925 z m 7.33818,-9.42268 c 2.89286,-3.42689 6.37206,-9.37951 6.0109,-10.28413 -0.17125,-0.42895 -2.63752,2.10941 -5.48059,5.64078 -4.39961,5.46474 -5.25098,7.15901 -5.71842,11.37982 l -0.5492,4.95915 1.87452,-4.67016 c 1.03099,-2.56858 2.76924,-5.73004 3.86279,-7.02546 z m -104.17273,4.37439 c -1.03094,-6.71879 -2.34898,-10.3585 -6.49746,-17.94251 -2.13009,-3.89411 -4.16029,-8.35734 -4.51155,-9.91829 l -0.63865,-2.83811 2.70775,3.3061 c 3.18349,3.88699 7.51309,7.85199 8.57401,7.85199 0.4113,0 -0.74001,-1.88623 -2.55848,-4.19162 -7.43189,-9.42191 -10.34751,-20.86824 -12.38595,-48.62568 -1.36067,-18.52824 -2.03368,-18.97072 -4.51462,-2.96823 -2.44518,15.77185 -1.70392,35.00363 1.66435,43.18103 2.63887,6.40658 2.75547,7.40876 0.42404,3.64451 -3.25591,-5.25685 -7.6011,-19.92731 -9.15945,-30.92457 l -1.62988,-11.50208 -2.40765,6.88988 c -1.90511,5.4517 -2.3208,8.21322 -1.99152,13.22956 0.50887,7.75204 3.57635,13.20033 14.06624,24.98363 8.32004,9.34592 14.98372,19.93518 16.6043,26.3859 1.42621,5.67708 3.14607,5.24873 2.25452,-0.56151 z m 42.87009,-6.72633 c -0.37477,-5.96155 -0.94824,-7.68711 -4.56703,-13.74205 -12.12605,-20.28924 -15.04912,-22.66219 -8.77834,-7.12626 3.67193,9.09727 3.23846,9.33709 -1.79517,0.99317 -1.90801,-3.16277 -3.45092,-5.00661 -3.42871,-4.09744 0.0768,3.14457 2.72471,7.91075 7.80047,14.04106 6.15247,7.43068 7.99211,10.91478 7.99211,15.13627 0,1.75719 0.30942,3.45324 0.68762,3.76901 1.57914,1.31845 2.49007,-2.59457 2.08905,-8.97376 z m 75.35058,-4.8648 c -0.92002,-0.70672 -1.0524,-0.56793 -0.56251,0.58979 0.35237,0.8327 0.71556,2.69238 0.80708,4.13262 0.14783,2.32615 0.21065,2.26027 0.56251,-0.58978 0.23084,-1.86978 -0.1059,-3.594 -0.80708,-4.13263 z m -320.66304,1.09374 c 0,-1.84496 -1.31081,-7.70295 -2.9129,-13.01777 -4.5775,-15.18549 -6.93777,-28.54187 -8.99814,-50.91915 -1.96222,-21.31135 -1.76672,-30.67567 1.0886,-52.14146 1.29918,-9.76703 2.22418,-12.43222 6.02849,-17.36973 1.74589,-2.26595 4.45919,-5.9796 6.02954,-8.25254 l 2.85519,-4.13262 -0.65429,4.11064 c -0.35987,2.26086 -1.93247,8.75088 -3.49468,14.42229 -3.5,12.70633 -4.88019,24.43425 -2.81095,23.8854 1.69421,-0.44937 6.59395,-7.87452 11.19656,-16.96743 3.79348,-7.49439 5.86945,-15.75184 7.48766,-29.78319 1.50938,-13.08775 2.5464,-14.71438 3.26538,-5.12196 0.32159,4.29066 1.31648,10.59072 2.21084,14.00013 0.94494,3.60225 1.68314,10.43583 1.76224,16.31341 0.0748,5.56297 0.45178,9.84023 0.83756,9.50504 0.38578,-0.33519 1.70223,-3.02703 2.92544,-5.98185 1.81422,-4.38247 2.25204,-7.3523 2.37608,-16.11723 0.0888,-6.27239 0.62569,-11.47753 1.28991,-12.50512 1.79154,-2.77156 8.17507,-4.43864 16.9963,-4.43864 4.31259,0 8.11982,0.37656 8.4605,0.8368 0.34069,0.46024 -1.39014,2.80072 -3.84627,5.20107 -9.01273,8.80802 -13.03488,18.44126 -10.49442,25.13465 2.64879,6.97878 7.29911,5.68794 13.45992,-3.73623 6.51274,-9.96251 13.21932,-18.03452 18.97497,-22.83819 5.96137,-4.97537 16.49667,-10.70807 21.49587,-11.69682 2.28652,-0.45223 0.90093,0.75378 -6.02213,5.24159 -16.11614,10.44715 -21.17044,16.33478 -29.62116,34.50485 -8.75577,18.82601 -9.25772,24.43206 -3.07604,34.35474 5.02136,8.06014 5.3603,9.14261 6.47666,20.68456 l 0.83211,8.60311 13.10357,10.98849 c 7.20696,6.04367 13.31617,10.81099 13.57601,10.59404 0.25984,-0.21694 0.0124,-3.92922 -0.54989,-8.24949 -1.5789,-12.13138 0.65151,-21.28952 6.76986,-27.79723 1.85557,-1.97367 1.84831,-1.84397 -0.16218,2.89284 -1.41866,3.34245 -2.11817,7.0144 -2.14568,11.26353 -0.0347,5.36035 0.39414,7.03119 2.86389,11.15809 2.7314,4.56413 3.10528,4.84564 6.26682,4.71868 4.61707,-0.18542 10.57954,-3.88546 16.1438,-10.0181 6.307,-6.95127 6.61588,-8.98823 3.41111,-22.49461 -3.2581,-13.7311 -3.27457,-17.30276 -0.14696,-31.86386 4.53223,-21.10055 6.11251,-45.4162 2.95163,-45.4162 -0.53524,0 -4.31421,5.32172 -8.39772,11.82604 -11.33714,18.05809 -14.49002,20.06511 -4.79353,3.05141 9.86396,-17.30756 14.28625,-24.15878 22.27365,-34.50741 3.42094,-4.43224 5.81027,-8.05862 5.30962,-8.05862 -1.18153,0 -5.47963,4.72095 -8.00263,8.78992 l -1.9809,3.19469 0.6206,-2.89284 c 0.34133,-1.59106 1.91467,-4.83986 3.49631,-7.21956 1.58165,-2.37971 2.87359,-4.42536 2.87099,-4.54589 -0.003,-0.12053 -3.53163,-0.29519 -7.84228,-0.3881 -4.31065,-0.0929 -14.32822,-0.92979 -22.26128,-1.85968 -18.80165,-2.20391 -37.2311,-2.22453 -52.40502,-0.0586 -21.62483,3.08666 -41.01109,9.72364 -48.74493,16.68805 -3.55477,3.20111 -15.4809,19.31587 -20.7044,27.97609 -7.04308,11.67697 -7.62683,15.07143 -8.171,47.51432 -0.38142,22.7398 -0.11671,32.99514 1.23739,47.93843 0.94743,10.45554 2.08181,19.93991 2.52083,21.07638 0.47779,1.23684 0.90616,-4.40362 1.06711,-14.05092 0.1479,-8.86447 0.40355,-13.69964 0.56814,-10.74482 0.69245,12.43191 2.40915,21.58759 5.81258,31.00009 3.77871,10.45033 9.06218,21.07093 10.48226,21.07093 0.46387,0 0.84339,-1.5095 0.84339,-3.35444 z m 306.93258,-2.51487 c 1.67689,-2.77354 2.82616,-5.22875 2.55392,-5.45605 -0.44521,-0.37172 -6.56425,9.00782 -6.56425,10.062 0,1.36577 1.30825,-0.13677 4.01033,-4.60595 z m -190.39713,-2.56452 c -5.52702,-6.42529 -17.9333,-17.02343 -24.02242,-20.52127 -8.49783,-4.88152 -6.44799,-0.88877 4.42221,8.61369 7.82606,6.84134 22.94732,18.0542 23.60582,17.5044 0.25888,-0.21614 -1.54365,-2.73471 -4.00561,-5.59682 z m -16.81336,-0.45131 c -0.84564,-7.48361 -3.55896,-11.69469 -10.25244,-15.91186 -3.20075,-2.0166 -10.38566,-7.1492 -15.96646,-11.40576 -5.58079,-4.25656 -10.1469,-7.46056 -10.1469,-7.11999 0,1.6057 10.64974,17.09466 15.29592,22.24637 2.86987,3.18212 6.0391,6.85929 7.04274,8.17148 2.57477,3.36634 2.92977,1.31341 0.5497,-3.17891 -1.9286,-3.6402 -1.93209,-3.73611 -0.1063,-2.92028 1.03828,0.46395 3.50581,3.16297 5.4834,5.99782 3.3448,4.79475 7.10369,8.87364 8.17747,8.87364 0.25295,0 0.21824,-2.13863 -0.0771,-4.75251 z m 223.53989,-2.30535 c -0.62666,-3.48906 -1.89915,-5.25665 -2.81271,-3.90707 -0.23581,0.34836 0.26064,2.6602 1.10323,5.13742 1.7182,5.05157 2.70961,4.33803 1.70948,-1.23035 z m -62.03228,-9.88589 c -0.908,-10.86855 -3.29183,-17.15366 -8.82818,-23.276 -2.19462,-2.42692 -4.17059,-4.41258 -4.39104,-4.41258 -0.22045,0 0.85716,2.3246 2.39469,5.16578 3.62505,6.69868 7.39736,16.88947 8.94916,24.17585 2.36828,11.12018 2.90312,10.64876 1.87537,-1.65305 z m 64.93988,1.52387 c -8.69681,-7.54353 -13.7106,-17.07233 -14.8819,-28.2833 -0.9013,-8.6267 -2.44268,-7.76768 -3.15447,1.758 -0.40027,5.35677 -0.11448,8.01458 1.23049,11.44347 2.83534,7.22844 6.12785,12.01458 10.2555,14.9079 3.39571,2.38026 9.94556,5.03928 10.84616,4.40318 0.17585,-0.12419 -1.75725,-2.02736 -4.29578,-4.22925 z m -308.84221,-0.39743 c 1.94539,-1.42612 4.06066,-3.37878 4.70059,-4.33926 0.63993,-0.96048 1.4468,-6.5815 1.79304,-12.49115 0.58678,-10.01546 0.98166,-11.6425 5.81728,-23.96922 2.85327,-7.27342 5.39046,-15.27004 5.6382,-17.77028 l 0.45043,-4.54589 -3.49163,6.94185 c -1.9204,3.818 -3.66424,7.08594 -3.87519,7.26207 -0.21096,0.17613 -0.15677,-3.97052 0.12041,-9.21478 0.28229,-5.34067 0.11664,-9.52149 -0.37656,-9.50427 -1.8047,0.0631 -11.15981,15.54841 -14.21218,23.5252 -5.07009,13.24973 -7.21455,22.94574 -7.34221,33.19716 -0.10827,8.69411 0.0239,9.35155 2.285,11.36472 3.0896,2.75081 4.19943,2.6912 8.49282,-0.45615 z m 307.7758,-13.09633 c -1.00809,-5.31417 -1.46509,-11.55035 -1.21991,-16.64693 0.46536,-9.67363 -1.00155,-8.76398 -1.82736,1.13316 -0.55981,6.70906 0.68475,16.57306 2.77071,21.95999 1.84101,4.7543 1.94435,2.34549 0.27656,-6.44622 z m -259.13083,1.97669 c -0.34258,-2.08684 -1.46099,-5.34128 -2.48535,-7.23209 -2.14765,-3.96425 -7.96495,-10.81 -8.67923,-10.21364 -0.49714,0.41508 10.66642,21.23999 11.38609,21.23999 0.22076,0 0.12108,-1.70742 -0.22151,-3.79426 z m 114.61025,-40.01155 c 0.0661,-10.34965 -0.27471,-13.76396 -1.77381,-17.77028 -1.43847,-3.84426 -2.01362,-4.59622 -2.55837,-3.34479 -0.58516,1.34428 -0.81297,1.15415 -1.36167,-1.13647 -0.36242,-1.51295 -0.65895,-3.63418 -0.65895,-4.71383 0,-1.07964 -0.39594,-1.96299 -0.87986,-1.96299 -0.48393,0 -0.87656,4.55622 -0.87251,10.12493 0.006,8.20331 -0.38833,11.05504 -2.07744,15.02566 -2.74625,6.45565 -1.97641,6.92701 0.96598,0.59145 2.27521,-4.89899 2.30451,-4.92207 3.4746,-2.73684 0.64902,1.21209 1.74267,6.82077 2.43034,12.46372 1.68409,13.81952 3.20079,10.82405 3.31169,-6.54056 z m -175.78296,4.33926 c 3.38095,-12.25783 4.80927,-24.80355 4.23447,-37.19361 -0.18587,-4.00651 -1.7697,-3.24982 -3.46,1.65305 -3.60554,10.45819 -6.38325,42.77265 -3.6767,42.77265 0.49911,0 1.80511,-3.25444 2.90223,-7.23209 z m 322.30053,-16.73713 0.69475,-2.06631 -2.05499,2.06631 c -4.36789,4.39196 -9.28614,13.97677 -9.66474,18.8349 l -0.36793,4.72106 5.34909,-10.74482 c 2.942,-5.90966 5.66173,-11.67467 6.04382,-12.81114 z m -13.16282,12.19124 c 1.5615,-2.41851 0.38066,-1.63223 -3.10321,2.06631 -2.90443,3.0834 -2.97406,3.26019 -0.56975,1.44642 1.50649,-1.13647 3.15933,-2.7172 3.67296,-3.51273 z M 231.97653,372.8128 c 0.87225,-4.33412 0.95921,-6.87551 0.27881,-8.14862 -0.86882,-1.62567 -1.39103,-0.9056 -4.30451,5.93554 -3.26816,7.67398 -4.88237,16.67336 -3.50596,19.54608 0.99028,2.06681 5.90253,-9.23803 7.53166,-17.333 z m 290.56217,7.12935 c 2.74527,-4.68487 4.34859,-11.88832 2.64605,-11.88832 -0.82006,0 -11.43824,18.44662 -12.84555,22.31616 -0.97618,2.68408 7.73498,-6.2221 10.1995,-10.42784 z m 0.71169,6.60038 c 4.44712,-4.148 8.98713,-12.26152 10.67194,-19.072 1.59577,-6.45059 0.20369,-12.11947 -5.06273,-20.61655 -3.52959,-5.69482 -3.92287,-7.37873 -1.1905,-5.09742 0.64429,0.53794 1.4197,0.77078 1.72312,0.51744 1.09661,-0.91558 -2.73381,-12.376 -5.68405,-17.00642 -3.26201,-5.11975 -16.76682,-21.83006 -17.28966,-21.39354 -0.42363,0.35371 2.67534,7.57077 6.97398,16.24135 7.30421,14.73295 9.10196,29.69797 4.86928,40.53357 l -1.76251,4.51203 -0.49497,-3.71936 -0.49497,-3.71936 -2.96036,5.37241 c -2.60958,4.73583 -2.99879,5.10143 -3.28468,3.08546 -0.17839,-1.25783 -0.73949,-2.07274 -1.2469,-1.81091 -0.50742,0.26183 -0.89242,5.19629 -0.85557,10.96547 0.0432,6.76033 0.37551,9.90173 0.93482,8.83636 10.44882,-19.90325 15.10465,-30.32973 15.68571,-35.1273 l 0.65068,-5.37241 2.46774,6.61219 c 1.80066,4.82479 2.45362,8.39961 2.41548,13.2244 -0.0657,8.31395 -1.2457,11.66814 -6.83299,19.42333 -6.22469,8.63989 -5.96,9.88591 0.76714,3.61126 z m 32.90381,-22.46967 c 5.38375,-14.82423 7.50233,-24.91501 7.55045,-35.96252 0.0419,-9.60702 -0.0194,-9.88 -3.55638,-15.85523 -2.32247,-3.92345 -4.96367,-6.98234 -7.4466,-8.62423 l -3.84762,-2.54433 1.76691,3.93539 c 2.97314,6.62189 3.18593,8.26561 0.53621,4.142 -2.64312,-4.11333 -4.0808,-5.16933 -2.93533,-2.15604 0.51574,1.35672 -0.0397,1.11549 -2.37913,-1.03316 -1.67857,-1.5417 -3.06501,-2.41033 -3.08097,-1.93029 -0.0159,0.48006 2.64974,4.94329 5.92379,9.9183 6.88622,10.46382 9.91124,17.79195 9.8259,23.80336 l -0.0604,4.25219 -2.75933,-8.04608 c -2.99044,-8.71995 -7.82853,-15.76582 -12.8933,-18.77691 -1.66952,-0.99257 -3.03551,-1.43687 -3.03551,-0.98731 0,0.44954 1.54194,3.86992 3.42654,7.60082 4.20759,8.32966 3.51827,7.9064 -2.39463,-1.47036 -3.15589,-5.00465 -5.47526,-7.63304 -7.68758,-8.71181 l -3.16816,-1.54486 4.66443,7.58659 c 2.56543,4.17263 7.16186,10.06462 10.21428,13.09332 6.81375,6.7608 8.26086,9.04257 10.22934,16.12932 2.19915,7.91718 2.05035,9.00869 -2.94833,21.62802 -2.47122,6.23866 -4.71261,13.05642 -4.98087,15.15056 -0.44056,3.43919 -0.19136,3.12786 2.57583,-3.2179 1.68496,-3.86401 4.59216,-11.23448 6.46045,-16.37884 z M 448.28937,374.5904 c -4.48348,-8.11074 -6.45096,-14.76669 -7.20751,-24.3829 -0.48717,-6.19216 -0.85575,-7.59839 -1.6796,-6.40807 -1.66705,2.4086 -1.25102,18.29824 0.58252,22.24868 1.78063,3.83643 10.57643,15.59487 11.24688,15.0351 0.24341,-0.20323 -1.08062,-3.12499 -2.94229,-6.49281 z m -102.11854,-3.01368 c 0.36576,-2.16489 1.74427,-9.5152 3.06336,-16.33403 3.31873,-17.15573 5.40459,-35.83126 5.43638,-48.67412 0.0148,-5.95961 0.43487,-14.35922 0.93361,-18.6658 0.49873,-4.30658 0.73856,-7.9706 0.53296,-8.14225 -0.77441,-0.64657 -6.27974,9.65715 -9.19656,17.21218 -2.94848,7.63706 -3.05139,8.44021 -3.75959,29.34163 -0.40048,11.8193 -0.7694,25.76691 -0.81983,30.99467 -0.14951,15.49895 2.14795,24.10323 3.80967,14.26772 z m 158.50618,-13.28133 c 1.07458,-7.93014 -1.07973,-12.34057 -14.71299,-30.12138 -2.70127,-3.52306 -4.97117,-6.40557 -5.04421,-6.40557 -0.0731,0 0.14367,3.26441 0.4816,7.25424 0.54571,6.44328 1.2301,8.40676 6.12195,17.56365 6.74751,12.63048 7.62179,15.25167 7.71171,23.12054 l 0.0709,6.19894 2.36525,-6.44157 c 1.3009,-3.54286 2.65352,-8.56885 3.00584,-11.16885 z m -4.88302,0.56335 c -0.82527,-3.44516 -0.0255,-4.1129 0.8662,-0.72321 0.37586,1.42878 0.47702,2.77006 0.22482,2.98064 -0.2522,0.21057 -0.74317,-0.80528 -1.09102,-2.25743 z m 1.63079,-6.50888 c 0,-2.04565 0.19306,-2.88251 0.42901,-1.85968 0.23596,1.02282 0.23596,2.69653 0,3.71936 -0.23595,1.02282 -0.42901,0.18596 -0.42901,-1.85968 z m 64.64229,20.19081 c -0.36412,-1.21128 -0.88478,-2.01636 -1.15702,-1.78907 -0.27223,0.2273 -0.19704,1.40432 0.16708,2.6156 0.36412,1.21128 0.88477,2.01636 1.157,1.78907 0.27224,-0.2273 0.19706,-1.40432 -0.16706,-2.6156 z m -16.44142,-21.01734 c -0.65144,-2.50024 -1.82836,-5.59498 -2.61535,-6.8772 -1.91957,-3.12748 -10.16658,-12.13287 -11.11112,-12.13287 -0.41374,0 -2.46942,-2.61546 -4.56817,-5.81214 -5.74656,-8.75278 -6.8409,-8.55496 -2.45546,0.44387 3.89369,7.98977 15.73403,26.39292 16.54514,25.71571 0.2344,-0.19572 -0.0397,-1.76456 -0.60909,-3.48633 -0.5694,-1.72178 -0.88038,-3.25982 -0.69105,-3.4179 0.84609,-0.70642 3.56331,6.80519 4.74246,13.11031 l 1.29428,6.92073 0.3264,-4.95914 c 0.17953,-2.72754 -0.20659,-7.0048 -0.85804,-9.50504 z m -168.59198,6.08982 c -0.26898,-1.42378 -0.0199,-2.98036 0.55342,-3.45907 1.27313,-1.06296 0.48805,-21.06707 -0.94611,-24.10682 -0.90067,-1.90898 -1.01044,-1.93793 -1.56755,-0.41326 -2.79409,7.64675 -2.95556,18.39902 -0.44568,29.67737 0.95625,4.29697 1.19971,4.65049 1.99217,2.89283 0.49654,-1.1013 0.68273,-3.16727 0.41375,-4.59105 z m 24.10975,-6.47534 c -0.51057,-1.12122 -1.88353,-5.49147 -3.05101,-9.71167 -1.1675,-4.2202 -3.88567,-12.69423 -6.04039,-18.83117 -4.80544,-13.68655 -6.04251,-25.33266 -3.33622,-31.40794 0.91125,-2.04565 1.87231,-4.46324 2.1357,-5.37241 0.43492,-1.50136 0.32697,-1.4824 -1.17629,0.20663 -2.22806,2.50338 -3.57074,2.3564 -2.37911,-0.26044 1.24492,-2.73386 1.27188,-5.08447 0.0463,-4.03749 -2.03675,1.73993 -5.2731,10.21605 -5.98032,15.66264 l -0.75125,5.78568 -0.13441,-4.97577 c -0.0762,-2.82124 0.74298,-7.61929 1.8919,-11.08087 1.11447,-3.35782 1.79666,-6.60478 1.51598,-7.21548 -0.28071,-0.6107 -0.0789,-1.11036 0.44851,-1.11036 0.52738,0 0.95887,-0.74388 0.95887,-1.65305 0,-2.63155 -1.77346,-1.92502 -3.89877,1.55323 -5.74451,9.40136 -5.14629,25.96646 1.57067,43.49236 1.53849,4.01424 15.41267,27.88588 17.41362,29.96152 1.52628,1.58325 1.78837,1.23932 0.76619,-1.00541 z m -19.65517,-45.89986 c 0,-1.13647 0.2247,-1.60139 0.49932,-1.03316 0.27462,0.56824 0.27462,1.49808 0,2.06631 -0.27462,0.56824 -0.49932,0.10332 -0.49932,-1.03315 z m -13.17649,42.77265 c -1.15452,-5.92737 -1.11133,-18.73945 0.0884,-26.24216 0.54521,-3.40941 1.00504,-11.08791 1.02185,-17.06332 0.0351,-12.46172 1.35497,-17.08145 8.56394,-29.97429 4.40894,-7.88512 4.844,-10.44393 1.13686,-6.68649 -1.77574,1.79983 -3.27412,4.27357 -8.51089,14.05092 -1.07052,1.99873 -1.08729,1.98521 -0.51292,-0.41327 0.32657,-1.36376 1.42841,-4.51233 2.44854,-6.99681 1.02011,-2.48448 1.85475,-4.84252 1.85475,-5.24008 0,-0.39757 -2.51555,1.44922 -5.5901,4.10397 -5.67411,4.89936 -10.54986,12.2584 -11.68606,17.63796 -0.44257,2.09544 0.23078,1.30554 2.4428,-2.8656 3.79113,-7.14882 4.37866,-7.62484 3.604,-2.92008 -4.65225,28.2546 -5.22362,55.60129 -1.28846,61.66752 l 1.54919,2.38815 0.0697,-2.06631 c 0.066,-1.95735 0.12673,-1.97914 1.15053,-0.41326 1.80788,2.76513 3.83583,5.37241 4.17866,5.37241 0.17837,0 -0.056,-1.95267 -0.52088,-4.33926 z m 112.0755,-6.9022 c -0.52995,-3.13626 -1.05703,-13.69893 -1.17128,-23.47258 -0.17392,-14.8781 0.0607,-18.35891 1.44116,-21.38693 2.11831,-4.64626 2.07639,-4.91203 -0.36586,-2.31974 -4.34996,4.61719 -6.3059,10.39366 -8.30702,24.53319 -0.22517,1.59106 -0.26376,-2.1283 -0.0857,-8.26524 0.28532,-9.83589 0.68865,-12.08242 3.40371,-18.95849 3.24952,-8.22968 4.74826,-14.1025 3.59893,-14.1025 -0.71527,0 -6.03589,3.45089 -12.38062,8.02991 -2.02523,1.46162 -5.15004,5.07192 -6.94402,8.02288 -3.08729,5.07838 -3.23706,5.73206 -2.79981,12.21995 0.35833,5.317 1.1276,8.05966 3.42945,12.22697 4.74504,8.59052 19.9685,30.15686 20.79835,29.46401 0.19046,-0.15902 -0.0873,-2.85516 -0.61726,-5.99143 z m -6.84931,-9.95308 c -0.62223,-2.58689 -1.086,-5.85019 -1.03059,-7.25178 0.0554,-1.4016 0.7283,0.57821 1.49528,4.39957 1.58556,7.8998 1.24792,9.9722 -0.46469,2.85221 z m -10.73389,1.01341 c -12.00626,-25.03242 -10.79306,-35.53396 5.85129,-50.64902 4.10296,-3.72597 7.67738,-7.72428 7.94316,-8.88515 0.73703,-3.21905 -0.77219,-2.54748 -5.00825,2.2286 -3.25556,3.67058 -16.11562,16.67131 -17.78239,17.97692 -0.99897,0.7825 1.15607,-2.08209 6.45659,-8.58241 9.52536,-11.68151 12.73168,-18.69312 8.85119,-19.35587 -2.48094,-0.42372 -5.36613,1.95517 -8.32235,6.8619 -1.36941,2.27294 -3.97011,5.82887 -5.77934,7.90207 -7.29048,8.3542 -12.05956,20.20248 -10.84767,26.94988 0.79091,4.40353 2.03467,4.60127 3.03159,0.48198 0.70835,-2.92684 0.81834,-2.7312 1.97507,3.51273 0.67372,3.63671 1.72217,7.65923 2.32989,8.93895 1.59861,3.36634 1.33504,3.73399 -0.99839,1.39261 -5.08701,-5.10436 7.11296,11.61211 15.46248,21.18678 2.59234,2.97272 1.71516,0.21045 -3.16287,-9.95997 z m -57.15674,-8.74724 c 0.8591,-5.22777 2.4217,-12.75554 3.47245,-16.72837 1.05074,-3.97284 1.89562,-7.6922 1.8775,-8.26525 -0.0539,-1.70774 -4.02654,2.75789 -6.7934,7.6366 -2.37335,4.18485 -2.57556,5.39925 -2.54598,15.29071 0.0177,5.90965 0.45765,12.97644 0.97772,15.70397 l 0.94557,4.95915 0.25206,-4.54589 c 0.13863,-2.50024 0.95497,-8.82315 1.81408,-14.05092 z m 168.98464,11.18362 c 0.67664,-1.86192 1.1951,-7.707 1.17528,-13.24993 -0.0385,-10.75497 -1.72763,-16.37555 -6.87178,-22.86568 -2.14862,-2.71081 -11.24749,-8.09837 -13.71571,-8.12124 -0.46032,-0.004 0.57698,2.08402 2.30512,4.64063 l 3.14208,4.6484 -3.01765,-1.79404 c -1.65969,-0.98672 -3.28013,-2.14866 -3.60097,-2.58208 -0.90417,-1.22148 -2.44636,-0.92963 -2.44636,0.46296 0,1.35686 1.65647,4.09686 3.86571,6.39435 0.76497,0.79553 1.04784,1.44642 0.6286,1.44642 -0.41924,0 -0.11574,0.83685 0.67445,1.85968 2.1846,2.82776 11.31848,20.42845 12.54607,24.17585 0.59566,1.81835 1.09968,5.16578 1.12003,7.43872 0.0344,3.83996 0.14136,4.01736 1.51068,2.50511 0.81053,-0.89513 2.01852,-3.12675 2.68445,-4.95915 z m -17.07048,-29.76045 c -0.78082,-0.78552 -0.85593,-1.25976 -0.1995,-1.25976 1.1964,0 2.59127,1.56808 1.90475,2.14128 -0.24917,0.20803 -1.01653,-0.18865 -1.70525,-0.88152 z m -55.83579,16.23729 c -3.57211,-6.21396 -7.15927,-13.52973 -7.97148,-16.25726 l -1.47674,-4.95915 0.30044,8.26524 c 0.21189,5.82871 0.80645,9.07977 2.01688,11.02827 0.94403,1.51965 1.52582,2.92214 1.29287,3.11664 -1.03045,0.86035 -5.69633,-9.85553 -7.23857,-16.62448 -0.93217,-4.0913 -2.02611,-7.75334 -2.43099,-8.13788 -1.33268,-1.26573 -1.98469,5.56378 -0.9995,10.46932 1.60591,7.9963 5.04654,13.04091 14.02778,20.56739 10.61442,8.89511 11.07983,7.49321 2.47931,-7.46809 z M 378.6487,316.13268 c 0.30536,-1.9008 0.21308,-3.45601 -0.20508,-3.45601 -0.88806,0 -4.04476,12.67047 -3.91245,15.70397 0.10388,2.38141 3.28977,-7.09535 4.11753,-12.24796 z m 62.8075,-3.29557 c -0.63276,-6.85096 -0.82961,-6.29259 9.96348,-28.26228 0.53566,-1.09035 0.37792,-1.09515 -1.30867,-0.0398 -1.67635,1.04889 -1.75575,1.04889 -0.63082,0 0.70781,-0.65995 1.81539,-1.19992 2.46129,-1.19992 0.64591,0 1.33576,-0.69965 1.53299,-1.55477 0.19725,-0.85512 2.3799,-3.83061 4.85035,-6.6122 6.48101,-7.29724 9.15113,-12.47399 9.16264,-17.76428 l 0.01,-4.4416 -5.1972,0.40771 c -2.85845,0.22425 -6.08814,0.71323 -7.17708,1.08664 -1.49313,0.512 -1.18891,-0.0781 1.23743,-2.40044 3.47389,-3.32492 3.48353,-3.3478 2.58803,-6.13836 -0.51997,-1.6203 -1.20194,-1.0214 -4.99106,4.38301 -2.41385,3.44286 -6.16959,8.19272 -8.3461,10.55525 -5.05799,5.49028 -12.11181,17.6271 -14.26555,24.54535 -2.28507,7.34008 -1.61097,15.92293 1.66814,21.23925 5.12641,8.31134 8.05371,12.64826 8.5372,12.64826 0.27563,0 0.233,-2.90329 -0.0947,-6.45176 z m -41.99183,-5.9088 c -0.75893,-2.97535 -1.22033,-6.61852 -1.02533,-8.09593 0.42489,-3.21928 -0.47976,-3.47458 -2.05883,-0.581 -1.771,3.24529 -1.33181,9.47146 0.95927,13.59877 1.74946,3.15162 2.17453,3.47272 2.78468,2.10362 0.39604,-0.88867 0.0991,-4.05012 -0.65979,-7.02546 z m 3.37283,-0.19229 c -0.31601,-0.65934 -0.55059,-0.4635 -0.59808,0.49936 -0.043,0.87129 0.19099,1.35946 0.51993,1.08482 0.32895,-0.27465 0.36411,-0.98753 0.0781,-1.58418 z m 26.51923,-29.12934 c 3.40194,-8.57804 11.30496,-21.32161 16.41639,-26.47132 4.14681,-4.17787 6.87518,-7.94533 6.87518,-9.49359 0,-0.47431 -3.18311,1.83183 -7.07358,5.12474 -3.89047,3.29291 -4.86124,3.94121 -2.15726,1.44066 8.02683,-7.42294 10.33576,-10.87133 10.89266,-16.26821 0.27284,-2.64418 0.063,-5.73744 -0.46634,-6.87391 l -0.96243,-2.06631 -1.84892,2.76465 c -1.01691,1.52056 -3.86931,5.05395 -6.33866,7.85198 -4.31872,4.89358 -11.27326,14.41753 -13.67328,18.725 l -1.15129,2.06631 0.59565,-2.06631 c 0.3276,-1.13648 1.66143,-4.11196 2.96406,-6.6122 l 2.36842,-4.54589 -3.06746,2.89284 c -2.33875,2.20561 -2.76895,2.40196 -1.8109,0.82652 0.69109,-1.13647 3.80021,-4.48389 6.90916,-7.43872 5.85393,-5.56373 8.6025,-9.09177 7.0831,-9.09177 -1.67072,0 -13.67382,8.09404 -18.10399,12.20806 -2.44749,2.27282 -5.96946,6.49976 -7.82659,9.3932 -3.11086,4.84675 -3.39722,5.91129 -3.63854,13.52604 -0.20671,6.52283 -0.0525,7.69896 0.73148,5.57904 1.24064,-3.35472 2.30806,-3.53772 1.44247,-0.24729 -0.71203,2.7067 0.31258,9.95896 1.40702,9.95896 0.38386,0 1.39512,-1.2088 2.24725,-2.68621 1.53741,-2.66557 1.54601,-2.64175 1.11756,3.09947 -0.37543,5.03087 -0.26353,5.54986 0.85766,3.97813 1.10999,-1.55603 1.241,-0.7737 0.94149,5.62238 -0.19137,4.08645 0.007,8.80518 0.44051,10.48605 0.64614,2.50452 0.9185,1.41515 1.50902,-6.03564 0.49761,-6.27848 1.52498,-11.12007 3.32016,-15.64666 z m -24.09235,5.16999 c -3.18245,-15.17863 -3.30651,-16.85627 -2.07075,-28.00301 0.64903,-5.85435 0.85718,-12.05124 0.46256,-13.77087 -0.69558,-3.03118 -0.83654,-2.82389 -4.61839,6.79169 -3.52958,8.97415 -3.85369,10.51233 -3.40481,16.15858 0.46959,5.90662 4.68844,18.40139 9.05601,26.82071 2.5754,4.96457 2.75874,2.41639 0.57538,-7.9971 z m 137.12327,6.96394 c -0.004,-0.79553 0.11853,-2.93416 0.27268,-4.75252 l 0.28029,-3.3061 1.18041,3.17945 c 1.26923,3.41872 2.40071,3.12431 4.44897,-1.15766 0.80353,-1.67981 0.9895,-1.18297 1.09945,2.93736 0.0952,3.5687 0.37087,4.49567 0.98311,3.3061 0.46793,-0.90918 0.88209,-2.83989 0.92036,-4.29047 0.0796,-3.01632 2.03365,-4.66129 2.07957,-1.75062 0.0291,1.84273 0.0682,1.85152 1.13594,0.25542 1.63427,-2.44299 1.83327,-2.53729 2.74764,-1.30204 1.37897,1.8629 3.71094,0.39414 4.42584,-2.78757 0.40098,-1.78457 1.08988,-2.76513 1.71577,-2.44215 0.70242,0.36245 0.82424,-0.37627 0.37105,-2.24998 -1.08402,-4.48171 -1.60001,-5.68245 -2.44197,-5.68245 -0.43543,0 -1.90976,-1.41062 -3.27629,-3.13471 -1.46471,-1.84795 -4.1719,-3.76997 -6.59504,-4.68228 -5.25458,-1.97833 -9.61353,-1.21951 -25.68414,4.47122 -6.34239,2.24589 -13.31351,4.19642 -15.49138,4.3345 -4.65992,0.29545 -5.57261,2.24763 -2.99588,6.40794 1.35136,2.18184 1.86249,2.42271 3.54532,1.67077 2.23739,-0.99975 3.9053,-0.43902 3.9053,1.31291 0,1.53141 0.49566,1.49951 3.66824,-0.23608 l 2.60862,-1.42709 -0.63883,2.66687 c -0.77345,3.22885 0.701,3.50717 2.59457,0.48976 l 1.36625,-2.17712 0.72694,2.79701 c 0.69923,2.69038 0.76734,2.72612 1.78647,0.93733 1.50082,-2.63423 2.41451,-2.31366 3.1855,1.11761 0.74398,3.31109 1.48201,3.13232 3.15268,-0.76367 l 1.12645,-2.62688 0.73097,4.32352 c 0.71153,4.20846 2.36389,5.25532 2.557,1.62 0.0735,-1.38198 0.45694,-1.07678 1.61925,1.28857 1.62157,3.29998 2.9014,4.03231 2.88889,1.65305 z m -0.77085,-24.45632 c 0.74726,-0.75492 2.1405,-1.37258 3.09611,-1.37258 0.9556,0 2.34884,0.61766 3.0961,1.37258 1.2436,1.25636 1.17005,1.27451 -0.86874,0.21444 -1.91008,-0.99315 -2.54465,-0.99315 -4.45473,0 -2.03879,1.06007 -2.11234,1.04192 -0.86874,-0.21444 z m 45.16319,6.87268 c -1.29976,-3.85301 -3.1071,-8.49322 -4.01629,-10.31157 -1.75674,-3.51341 -6.9993,-9.50503 -8.31674,-9.50503 -0.43328,0 -1.00689,2.3246 -1.27469,5.16578 -0.42745,4.53482 -0.21264,5.41815 1.75871,7.23209 4.52033,4.15934 13.31466,13.65876 13.32684,14.3953 0.007,0.41671 0.20893,0.59368 0.44896,0.39327 0.24003,-0.20041 -0.62702,-3.51684 -1.92679,-7.36984 z m 3.01248,-1.48539 c -2.75179,-10.92208 -10.6226,-25.94889 -15.44656,-29.49031 -2.24997,-1.65176 -2.25023,-1.65176 -1.51722,8.3e-4 0.40322,0.90918 0.98522,3.41229 1.29334,5.56248 0.39438,2.75209 1.49724,4.83189 3.72544,7.02546 5.75622,5.66673 9.52893,12.40291 11.86812,21.19047 0.34705,1.30376 0.8399,2.19606 1.09522,1.98288 0.25533,-0.21316 -0.20293,-3.03556 -1.01834,-6.272 z M 388.51145,254.26319 c 0.93202,-0.86348 2.65337,-3.37965 3.82522,-5.59149 2.19911,-4.15078 6.01653,-14.51488 5.34629,-14.51488 -0.20818,0 -2.39433,3.25872 -4.85811,7.24158 -2.46379,3.98287 -5.80506,8.53909 -7.42506,10.12493 -2.85255,2.79241 -2.82549,2.68784 0.85781,-3.31559 6.36832,-10.37973 6.45063,-13.49401 0.15276,-5.77908 -4.42374,5.41911 -5.30755,4.58028 -1.08626,-1.03099 1.79903,-2.3914 4.14927,-5.64979 5.22276,-7.24085 l 1.95179,-2.89283 -3.60164,3.30609 c -4.29202,3.93982 -7.52483,8.75904 -7.52483,11.21742 0,2.32667 -6.71429,17.33236 -8.50862,19.01582 -0.76494,0.71768 -1.3908,1.59393 -1.3908,1.94725 0,0.63473 13.75964,-9.44948 17.03869,-12.48738 z m 108.47589,9.73072 c 2.02007,-0.86397 5.39644,-2.71822 7.50305,-4.12055 2.10662,-1.40234 4.21752,-2.34985 4.69089,-2.10559 0.47337,0.24427 0.5966,-0.13045 0.27384,-0.83271 -0.59423,-1.29291 -2.76079,-1.16333 -8.11692,0.48548 -1.26049,0.38802 -2.43362,0.7055 -2.60693,0.7055 -0.90593,0 -1.21203,-4.7362 -0.41869,-6.47836 0.50495,-1.10888 0.69282,-2.20423 0.41749,-2.43411 -0.83584,-0.69786 -8.89962,2.19143 -12.50288,4.47984 l -3.38596,2.15041 3.66763,-0.45392 c 3.06602,-0.37947 3.77078,-0.18258 4.29647,1.20033 0.38462,1.01177 -0.0104,2.24407 -1.01712,3.17282 -1.54273,1.42329 -1.50608,1.65289 0.58426,3.66013 1.22664,1.17787 2.39041,2.14158 2.58614,2.14158 0.19574,0 2.00867,-0.70688 4.02873,-1.57085 z m 69.44877,-0.86262 c 2.54509,-2.12495 3.6783,-7.24819 2.07681,-9.38926 -1.05011,-1.40391 -0.99872,-1.56797 0.35524,-1.13418 2.65494,0.85062 1.87927,-2.43247 -1.02542,-4.34012 -2.90346,-1.90685 -2.68372,-2.09505 1.059,-0.90697 2.2874,0.7261 2.5393,0.60982 2.5393,-1.17218 0,-3.27981 -1.06529,-4.58803 -3.8182,-4.68891 -2.03206,-0.0745 -2.17423,-0.18234 -0.63654,-0.48299 4.12799,-0.80711 5.90382,-5.71584 3.18918,-8.81549 -1.14662,-1.30923 -1.38103,-1.17844 -2.4941,1.39156 -0.97259,2.24564 -2.23891,3.18718 -6.07825,4.51935 -5.94143,2.06155 -7.93847,4.46137 -8.67574,10.42556 -0.53663,4.34117 -0.38527,4.76383 2.78596,7.77946 1.84438,1.75388 4.11227,4.36614 5.03977,5.805 1.95634,3.03496 3.02862,3.22536 5.68299,1.00917 z m -32.69422,-3.98565 c 6.42661,-2.69446 12.13147,-5.67775 13.22336,-6.915 2.82989,-3.20661 1.56055,-8.29397 -3.10927,-12.46162 -2.97355,-2.65378 -4.77417,-3.43436 -10.37338,-4.4969 -6.17942,-1.17265 -6.89765,-1.5303 -8.16702,-4.0668 -1.72369,-3.44436 -1.7915,-6.14127 -0.15433,-6.13718 0.68059,0.002 2.75,0.77299 4.59869,1.71399 2.69066,1.36956 3.52702,1.49262 4.19209,0.6168 2.20424,-2.90268 0.6565,-4.81472 -5.16269,-6.37789 -1.95195,-0.52434 -4.81951,-2.06056 -6.37236,-3.41382 -1.55284,-1.35325 -3.14074,-2.46047 -3.52865,-2.46047 -0.38792,0 -1.50516,1.85711 -2.48275,4.12692 -0.97759,2.26981 -3.50052,6.0277 -5.60653,8.35088 -2.106,2.32318 -3.63767,4.3838 -3.40368,4.57914 0.23397,0.19535 -1.07437,1.60737 -2.9074,3.13782 -1.83305,1.53045 -3.33281,3.17692 -3.33281,3.65881 0,0.59383 5.34348,0.78328 16.58153,0.58787 11.04222,-0.192 14.43194,-0.0752 10.1469,0.34965 -3.53904,0.35088 -9.52537,0.68144 -13.30296,0.73458 -5.3652,0.0755 -7.58437,0.50359 -10.14014,1.95628 -1.79949,1.02283 -3.27485,2.10903 -3.27857,2.41379 -0.004,0.30476 2.88882,0.813 6.42786,1.12944 5.72033,0.51147 12.18259,0.26249 23.26364,-0.89633 l 3.46479,-0.36234 -2.96982,0.8288 c -1.63341,0.45584 -8.66651,1.14921 -15.62913,1.54083 -6.9626,0.39161 -12.9765,0.97674 -13.36421,1.30028 -0.85824,0.71622 -1.03244,4.58372 -0.20646,4.58372 0.32476,0 1.12999,-0.45046 1.7894,-1.00101 0.93862,-0.78367 1.64326,-0.63004 3.24532,0.70755 1.84772,1.5427 2.39924,1.60871 5.68116,0.67984 1.99914,-0.5658 5.63942,-1.23675 8.08953,-1.491 3.98933,-0.41398 3.75661,-0.27811 -2.22737,1.30049 -6.20893,1.63793 -8.66914,3.11023 -5.1972,3.11023 0.8167,0 1.48492,0.37194 1.48492,0.82652 0,0.45459 -0.41546,0.82653 -0.92323,0.82653 -1.551,0 -2.28525,3.30991 -1.01723,4.58555 2.4851,2.50006 8.79753,1.41095 20.668,-3.56595 z m -18.91316,-24.7269 c 0.71461,-0.23876 1.56845,-0.2094 1.89739,0.0652 0.32895,0.27465 -0.25574,0.47 -1.2993,0.43411 -1.15323,-0.0397 -1.38779,-0.23551 -0.59809,-0.49935 z m -5.25907,-2.74149 c 0.33651,-0.45459 1.03101,-0.82653 1.54334,-0.82653 0.51234,0 0.93152,0.37194 0.93152,0.82653 0,0.45459 -0.6945,0.82652 -1.54334,0.82652 -0.84884,0 -1.26802,-0.37193 -0.93152,-0.82652 z m -91.27214,15.19948 c 3.04143,-3.94788 11.95365,-11.14534 20.32448,-16.41394 9.41371,-5.925 15.27028,-13.66299 10.34093,-13.66299 -1.40164,0 -1.31352,-0.22903 0.49497,-1.28665 3.56899,-2.08715 2.51418,-3.01111 -1.51212,-1.32454 -2.04176,0.85527 -7.94429,2.55471 -13.11673,3.77653 -6.11265,1.44392 -10.79048,3.12234 -13.36422,4.79514 l -3.95977,2.57363 3.4648,-3.09969 c 3.81092,-3.40935 8.13492,-5.51314 14.69447,-7.14943 5.3799,-1.34202 10.05408,-4.87933 10.05408,-7.6087 v -2.04829 l -9.11826,2.75661 c -5.01504,1.51613 -9.27777,2.62342 -9.47275,2.46063 -0.19497,-0.16279 2.2323,-1.10407 5.39394,-2.09171 6.70256,-2.09378 7.87331,-2.80303 9.82297,-5.95088 2.13842,-3.45263 -0.067,-3.09101 -7.90209,1.29566 -6.18614,3.46347 -6.41681,3.52446 -5.06313,1.33887 0.78006,-1.25946 2.46147,-3.35734 3.73647,-4.66196 4.63019,-4.73777 13.74183,-16.16076 13.23097,-16.58728 -1.20098,-1.00272 -7.82624,3.56983 -19.03288,13.13592 -11.16819,9.53329 -12.02483,10.4997 -13.66048,15.41107 -0.95979,2.88198 -1.52624,5.42268 -1.25875,5.64601 0.26748,0.22332 1.51147,-0.052 2.76441,-0.61189 2.16038,-0.96533 2.14121,-0.88212 -0.37079,1.61042 -3.11363,3.08949 -3.4943,4.75914 -4.04065,17.72257 -0.4176,9.90846 -0.0765,10.71132 2.34523,5.52023 2.15001,-4.60861 7.4626,-11.79013 10.51472,-14.2137 1.54396,-1.22601 4.58909,-2.82458 6.76697,-3.55237 l 3.95976,-1.32327 -4.22809,3.01548 c -2.32545,1.6585 -5.49703,4.55884 -7.04795,6.44519 -3.24716,3.94944 -10.04138,18.55972 -9.93796,21.37055 0.0548,1.48824 0.35254,1.25429 1.38524,-1.08828 0.72352,-1.64123 2.43001,-4.43075 3.79221,-6.19894 z m 76.67108,1.27902 c 3.24201,-0.9436 4.17138,-2.61974 4.19316,-7.56236 0.0189,-4.30338 3.52241,-11.6405 7.52616,-15.76168 3.50792,-3.61079 8.29984,-10.97688 8.31675,-12.78442 0.0172,-1.83492 -3.79761,-1.09776 -6.41586,1.23978 -1.40024,1.25012 -3.69662,4.3186 -5.10306,6.81883 -1.40644,2.50024 -4.38788,6.54792 -6.62541,8.99484 l -4.06822,4.44896 -8.30507,-0.48935 c -12.91801,-0.76114 -14.37658,-2.24349 -15.36616,-15.61665 -0.29336,-3.96444 -1.03151,-7.9852 -1.64033,-8.93501 -1.55298,-2.42275 -4.13236,-1.71975 -6.16903,1.68135 l -1.73086,2.8904 -0.002,-2.5581 c -0.002,-2.99484 2.01632,-4.69688 7.22537,-6.09374 2.06916,-0.55487 4.29232,-1.7177 4.94036,-2.58407 1.39982,-1.87146 2.68187,-2.05041 2.68187,-0.37432 0,0.66049 0.50018,2.11744 1.1115,3.23766 0.92476,1.69459 1.63158,1.96757 4.20725,1.62485 2.49122,-0.33148 4.01579,0.18885 7.80709,2.6645 3.17819,2.0753 6.5607,3.40149 10.39439,4.07533 l 5.68306,0.9989 -3.83778,0.6493 c -3.37758,0.57143 -4.79239,0.23495 -11.79888,-2.80608 -8.96629,-3.89166 -10.17866,-3.69234 -11.25599,1.85052 -1.5806,8.13226 6.75898,15.0699 14.95762,12.44313 1.6445,-0.52674 14.41032,-12.55642 14.41032,-13.57894 0,-0.31667 -2.24577,-0.8245 -4.99061,-1.1285 -7.30841,-0.80946 -12.05489,-4.7016 -17.44739,-14.30699 -2.58614,-4.60655 -4.77046,-7.49929 -5.52196,-7.31286 -0.68383,0.16965 -3.4707,0.7698 -6.19304,1.33368 -8.01926,1.66101 -14.51949,4.1966 -13.9477,5.44069 0.27937,0.60787 -0.14325,2.64627 -0.93919,4.52979 -2.28925,5.41733 -1.85226,12.38288 1.14969,18.32572 1.42826,2.82749 3.2593,7.00056 4.06897,9.2735 2.26606,6.36137 4.76187,9.88 9.31731,13.13559 7.09267,5.06887 14.20709,3.62975 11.98189,-2.42373 -0.5782,-1.57293 -0.66354,-2.85987 -0.18967,-2.85987 1.40622,0 5.84697,5.95645 6.9323,9.2984 0.55362,1.70471 1.14567,3.09947 1.31567,3.09947 0.17001,0 1.66736,-0.39534 3.32746,-0.87852 z m 59.03391,-11.7687 c 1.3111,-1.90851 2.68282,-4.30687 3.04829,-5.3297 0.56802,-1.58972 0.29552,-1.85968 -1.87709,-1.85968 -1.7523,0 -2.54832,0.44918 -2.56331,1.44642 -0.012,0.79553 -0.90132,3.06481 -1.97636,5.04284 -1.8757,3.45121 -1.84057,5.62798 0.0748,4.63959 0.50039,-0.2582 1.98251,-2.03097 3.2936,-3.93947 z m 15.45864,-11.5247 c 0,-1.9244 -3.00595,-5.00155 -12.31673,-12.60843 -5.94099,-4.85378 -11.53771,-10.31213 -13.55964,-13.2244 -3.22905,-4.65097 -3.69302,-4.97462 -7.4661,-5.20815 -3.81496,-0.23613 -4.10732,-0.0865 -5.65166,2.89283 l -1.62857,3.14185 0.57257,-2.89284 c 0.42606,-2.15257 0.30778,-2.57557 -0.46226,-1.65305 -0.56917,0.68188 -1.04168,2.46095 -1.05001,3.95347 -0.008,1.49253 -1.12884,4.54864 -2.49001,6.79135 -3.06407,5.04848 -3.06228,5.29687 0.0466,6.47953 3.43719,1.30756 5.71335,1.20561 9.07788,-0.4066 2.77256,-1.32855 2.96156,-1.29849 6.93129,1.10246 2.24455,1.35753 6.23234,3.13686 8.86176,3.95405 4.89326,1.52076 7.56949,2.92148 5.58182,2.92148 -0.5939,0 -3.02173,-0.7357 -5.39519,-1.6349 -4.29654,-1.62777 -11.22594,-2.23171 -12.06227,-1.0513 -0.24157,0.34094 -0.7345,2.11172 -1.0954,3.93506 l -0.65621,3.31519 4.29102,-0.28495 c 2.36006,-0.15671 5.83365,0.0932 7.71909,0.5554 4.14176,1.01529 20.75205,0.95281 20.75205,-0.078 z m -45.99857,-10.51273 c -2.60801,-2.27281 -4.48847,-2.62202 -4.48847,-0.83353 0,0.7771 4.73443,3.19219 6.37235,3.25062 0.51022,0.0182 -0.33753,-1.06949 -1.88388,-2.41709 z m 44.44922,-0.83546 c 3.19841,-1.01529 3.18172,-1.73575 -0.116,-5.00791 -2.48512,-2.46586 -2.73889,-2.53925 -3.95976,-1.14523 -1.37322,1.56797 -1.76587,5.47195 -0.64451,6.40819 0.88779,0.74124 1.72408,0.69605 4.72027,-0.25505 z m -9.34001,-4.56634 c -1.27472,-1.13289 -2.54041,-1.87382 -2.81264,-1.64653 -0.27223,0.2273 0.54798,1.34017 1.8227,2.47305 1.27472,1.13289 2.54041,1.87383 2.81264,1.64653 0.27224,-0.22729 -0.54798,-1.34017 -1.8227,-2.47305 z m 17.70761,0.92548 c 2.71108,-2.40943 5.06106,-8.64344 5.06106,-13.42595 0,-6.91153 -7.45794,-11.05549 -19.89673,-11.05549 -4.30791,0 -9.25218,1.7452 -10.08639,3.56024 -0.41642,0.90603 0.47863,1.06129 4.33478,0.75193 l 4.85956,-0.38986 v 4.70674 c 0,4.49262 0.10133,4.68179 2.22737,4.15809 5.1282,-1.26322 12.68802,-4.53086 13.23484,-5.72061 1.35589,-2.95011 2.35674,-0.88437 2.35674,4.86428 0,6.74068 -1.02444,9.8295 -4.19827,12.6583 -1.14757,1.02283 -1.64103,1.85969 -1.09656,1.85969 0.54447,0 1.98609,-0.88531 3.2036,-1.96736 z m -63.70345,-2.19891 c 1.70426,-1.57231 1.72521,-1.92258 0.30891,-5.16578 -1.51422,-3.46743 -3.56211,-4.14055 -3.04089,-0.99951 0.25489,1.5361 0.16408,1.52232 -1.2836,-0.19475 -0.9429,-1.11837 -3.78668,-2.37736 -7.20389,-3.18929 -3.33498,-0.79238 -6.94995,-2.37553 -8.83165,-3.86775 -2.74437,-2.17634 -3.27429,-2.33337 -3.82568,-1.13368 -0.66353,1.44372 2.6811,9.78784 4.92786,12.29388 3.63783,4.05766 15.46958,5.46687 18.94894,2.25688 z m 45.0059,-4.09898 c 0,-0.45459 -1.44779,-0.80038 -3.21731,-0.76843 -2.69614,0.0487 -2.89659,0.17316 -1.23743,0.76843 2.73491,0.98122 4.45474,0.98122 4.45474,0 z m -34.12988,-6.40357 c 5.58629,-9.65901 -10.59815,-18.6291 -26.60294,-14.74445 -5.34796,1.29806 -7.57318,2.98356 -7.57318,5.73635 0,1.01391 0.62963,1.08235 3.61836,0.39335 2.51399,-0.57956 4.34107,-0.55923 5.98624,0.0666 2.93378,1.11606 4.25459,1.144 4.25459,0.09 0,-0.44593 -1.11368,-1.04415 -2.47485,-1.32939 -4.51608,-0.94636 -2.19733,-2.81898 3.49055,-2.81898 4.71983,0 7.61528,2.99831 11.0468,11.43925 l 3.13841,7.71989 1.7818,-1.93422 c 0.98,-1.06382 2.4804,-3.1421 3.33422,-4.61842 z m 33.40626,1.72879 c -0.67022,-0.2264 -2.00664,-0.24018 -2.96982,-0.0307 -0.96319,0.20956 -0.41482,0.3948 1.21859,0.41164 1.6334,0.0169 2.42145,-0.15461 1.75123,-0.38102 z m -0.6825,-3.38694 c -0.69919,-0.58376 -4.53353,0.67432 -4.53353,1.4875 0,0.4142 1.11556,0.32872 2.47904,-0.18996 1.36347,-0.51869 2.28798,-1.10258 2.05449,-1.29754 z m -46.60607,0.623 c -0.77325,-1.04462 -3.50867,-1.04462 -5.44468,0 -1.10228,0.59475 -0.51328,0.80447 2.2858,0.81387 2.26496,0.007 3.52639,-0.31741 3.15888,-0.81387 z m -25.25867,-3.09947 c -0.0188,-1.78995 -1.64916,-4.05172 -2.44294,-3.38898 -0.54489,0.45496 1.37747,4.8354 2.12203,4.8354 0.18483,0 0.32924,-0.65089 0.32091,-1.44642 z m -51.77553,-3.66771 c -0.31601,-0.65934 -0.55059,-0.46349 -0.59808,0.49937 -0.043,0.87129 0.19099,1.35946 0.51993,1.08481 0.32895,-0.27465 0.36411,-0.98753 0.0781,-1.58418 z m 22.25476,-0.91501 c 5.26787,-3.35467 10.00185,-8.51173 15.9364,-17.36064 5.05387,-7.53576 4.80967,-9.55138 -0.72981,-6.02369 -3.22853,2.05601 -21.30858,23.55808 -21.30858,25.34168 0,1.37474 1.75215,0.8127 6.10199,-1.95735 z m -39.69306,-4.36855 c -1.12577,-2.12486 -2.04684,-5.48873 -2.04684,-7.47528 0,-2.99971 0.61661,-4.18175 3.63789,-6.9739 2.00084,-1.8491 4.8743,-3.89581 6.38546,-4.54827 3.41096,-1.47269 10.79134,-1.5438 13.11311,-0.12634 1.49993,0.91572 1.20471,1.01762 -2.16979,0.74894 -2.14827,-0.17105 -4.14353,0.01 -4.43393,0.40228 -0.2904,0.39231 1.14973,0.75002 3.20031,0.79491 2.05058,0.0449 7.38723,1.09901 11.85926,2.34247 4.47202,1.24347 8.40034,2.03592 8.72961,1.76101 0.84734,-0.70747 -1.51022,-4.13348 -5.56824,-8.09176 -4.59246,-4.47956 -0.80618,-2.84666 4.26389,1.83889 2.03712,1.88262 3.93692,3.22835 4.22178,2.99051 1.20137,-1.00305 -4.39162,-7.41225 -8.40533,-9.63196 -5.21205,-2.88241 -17.36841,-5.3281 -23.5786,-4.74367 -10.17313,0.95737 -17.69136,7.85732 -18.8597,17.30872 -0.74536,6.02975 0.79239,9.58797 6.3902,14.78628 5.17219,4.80308 6.28764,4.33006 3.26092,-1.38283 z m 59.82454,0.66396 c 5.44468,-1.13092 12.12678,-2.73175 14.84913,-3.5574 2.72234,-0.82565 6.08689,-1.69498 7.47678,-1.93184 2.24105,-0.38192 2.48072,-0.76223 2.11748,-3.36005 -0.49965,-3.57328 1.11946,-5.3862 4.8104,-5.3862 3.95565,0 6.08028,2.09729 5.71461,5.64105 -0.32549,3.15436 -0.84674,2.85924 8.09407,4.58272 1.36117,0.26238 4.1872,1.75969 6.28005,3.32734 3.29042,2.46467 4.29486,2.78727 7.42457,2.38458 1.99065,-0.25614 3.78155,-0.57946 3.97977,-0.71849 0.61763,-0.43323 -4.15742,-6.44432 -6.67142,-8.39837 -2.73284,-2.12414 -7.81612,-2.48884 -8.67398,-0.62232 -0.39153,0.85189 -1.22996,0.14588 -2.69128,-2.26627 -3.43217,-5.66534 -10.48741,-8.62072 -25.29597,-10.59626 -11.35226,-1.51445 -13.56036,-0.29521 -19.71195,10.88422 -2.26183,4.11048 -5.51727,8.45056 -7.7151,10.28557 -2.25033,1.87885 -3.00312,2.89157 -1.84439,2.48124 1.0768,-0.38132 6.41254,-1.6186 11.85723,-2.74952 z m 73.15688,1.79872 c 0.38655,-0.84105 -0.29595,-1.91646 -1.87397,-2.95283 -2.42579,-1.59312 -3.37486,-3.98961 -1.58,-3.98961 0.49606,0 1.94869,1.03864 3.22805,2.30809 1.84727,1.83295 2.83338,2.19021 4.79023,1.73544 1.35526,-0.31496 6.25063,-0.66987 10.87861,-0.78868 l 8.41451,-0.21604 -7.27273,-0.48624 c -6.56317,-0.43881 -7.50436,-0.72817 -9.64701,-2.96583 -1.30586,-1.36377 -2.37651,-2.73805 -2.37921,-3.05398 -0.003,-0.31592 -2.52755,-2.08262 -5.61075,-3.92599 -6.07151,-3.63 -9.25519,-4.1068 -14.47229,-2.16742 -6.14321,2.28366 -6.26982,2.55218 -2.50451,5.31243 1.89697,1.39061 4.69636,4.03116 6.22087,5.86788 1.52451,1.83672 3.53316,3.33949 4.46366,3.33949 0.9305,0 2.49812,0.74387 3.48359,1.65305 2.16648,1.99874 3.059,2.07508 3.86095,0.33024 z m -102.94869,-6.52918 c 1.46872,-1.13647 3.09293,-2.06631 3.60935,-2.06631 0.51641,0 0.93894,-0.71081 0.93894,-1.57958 0,-4.30927 -17.0147,-10.77246 -18.5069,-7.03001 -0.19637,0.4925 1.54862,1.3703 3.87774,1.95068 2.32912,0.58039 5.79392,1.7686 7.69956,2.64049 l 3.4648,1.58525 -3.4648,-0.48662 c -2.13581,-0.29996 -2.98118,-0.20626 -2.20398,0.24429 1.40253,0.81304 -0.34426,2.466 -4.50586,4.26381 -3.10535,1.34152 -1.846,2.54432 2.66394,2.54432 2.63517,0 4.55407,-0.61691 6.42721,-2.06632 z m 60.97498,-1.99871 c 0,-0.41741 0.22728,-1.25426 0.50507,-1.85968 0.33085,-0.72108 -0.35205,-1.14187 -1.97989,-1.21995 -1.74944,-0.0839 -2.48495,0.30343 -2.48495,1.30866 0,0.78533 0.29698,1.67582 0.65996,1.97888 0.97616,0.81502 3.29981,0.66861 3.29981,-0.20791 z M 464.5273,165.14201 c 2.62719,-1.25392 1.93769,-1.54002 -1.73239,-0.71884 -1.22506,0.2741 -2.22737,0.82693 -2.22737,1.2285 0,1.00961 1.06338,0.87274 3.95976,-0.50966 z m 57.41664,-4.92319 c 0,-1.20991 -16.55137,-4.5331 -23.22045,-4.6622 -9.54369,-0.18475 -10.56425,0.50013 -1.79648,1.20559 3.68665,0.29663 10.04406,1.23972 14.12757,2.09576 7.68193,1.61038 10.88936,2.01121 10.88936,1.36085 z m 14.60164,-0.19244 c -0.95282,-0.20789 -2.51197,-0.20789 -3.46479,0 -0.95282,0.20789 -0.17324,0.37799 1.7324,0.37799 1.90563,0 2.68521,-0.1701 1.73239,-0.37799 z m -3.16236,-10.38171 c -2.35081,-4.20494 -5.94567,-11.8252 -7.98855,-16.93389 -3.58688,-8.96977 -5.25687,-11.43485 -7.33877,-10.83283 -0.54163,0.15663 2.19533,8.18842 6.08214,17.84842 l 7.06692,17.56365 h 3.22624 3.22624 z m -95.20341,-5.96988 c 5.48024,-7.22298 10.11031,-10.75895 19.4584,-14.86033 10.85145,-4.76095 19.99192,-6.4312 35.84434,-6.54985 7.48613,-0.056 13.6114,-0.35199 13.61171,-0.65768 9.9e-4,-1.43217 -8.1777,-2.71401 -16.82846,-2.63738 -18.18442,0.16108 -34.00994,5.26327 -46.68457,15.05123 -7.34328,5.67083 -12.71195,11.72679 -12.71195,14.33929 0,3.07339 2.77154,1.29712 7.31053,-4.68528 z m -23.1496,1.64102 c 0,-0.49452 -11.74676,-5.46423 -21.77873,-9.21395 -10.99458,-4.10952 -5.27433,-0.90453 8.41451,4.71455 11.51508,4.72679 13.36422,5.34934 13.36422,4.4994 z m 120.89309,-15.3835 c -2.38401,-1.77304 -4.82192,-3.2237 -5.41758,-3.2237 -0.59565,0 1.13217,1.63464 3.8396,3.63253 2.70743,1.99789 5.14534,3.44856 5.41758,3.2237 0.27223,-0.22486 -1.45559,-1.8595 -3.8396,-3.63253 z m 60.26629,1.05366 c 0,-3.09218 -78.79635,-42.2975 -85.01114,-42.2975 -2.60985,0 -15.7469,3.90025 -36.75173,10.91121 -16.61947,5.54722 -37.65308,12.06177 -60.88143,18.85626 -12.73157,3.7241 -35.98358,11.88163 -31.73534,11.13375 2.79903,-0.49275 25.16819,-7.27286 49.05933,-14.86992 6.26138,-1.99103 16.73002,-5.27891 23.26363,-7.30639 6.53362,-2.02748 21.23426,-6.64994 32.66809,-10.27214 11.43383,-3.62219 21.73462,-6.83 22.89065,-7.12847 1.56531,-0.40413 4.85153,0.91448 12.87337,5.16547 5.92433,3.13946 16.78355,8.29035 24.1316,11.44642 13.46564,5.78364 33.10378,15.64358 43.30489,21.74257 5.93097,3.54597 6.18808,3.65478 6.18808,2.61874 z"
       id="path1" />
  </g>
</svg>
