<?xml version="1.0" encoding="UTF-8" standalone="no"?>
<!-- Created with Inkscape (http://www.inkscape.org/) -->

<svg
   width="210mm"
   height="297mm"
   viewBox="0 0 210 297"
   version="1.1"
   id="svg1"
   xml:space="preserve"
   inkscape:version="1.4 (86a8ad7, 2024-10-11)"
   sodipodi:docname="logo3.svg"
   xmlns:inkscape="http://www.inkscape.org/namespaces/inkscape"
   xmlns:sodipodi="http://sodipodi.sourceforge.net/DTD/sodipodi-0.dtd"
   xmlns="http://www.w3.org/2000/svg"
   xmlns:svg="http://www.w3.org/2000/svg"><sodipodi:namedview
     id="namedview1"
     pagecolor="#ffffff"
     bordercolor="#ffffff"
     borderopacity="0.25"
     inkscape:showpageshadow="2"
     inkscape:pageopacity="0.0"
     inkscape:pagecheckerboard="0"
     inkscape:deskcolor="#d1d1d1"
     inkscape:document-units="mm"
     inkscape:zoom="0.71891835"
     inkscape:cx="397.12437"
     inkscape:cy="561.25984"
     inkscape:window-width="1920"
     inkscape:window-height="1009"
     inkscape:window-x="-8"
     inkscape:window-y="-8"
     inkscape:window-maximized="1"
     inkscape:current-layer="layer1" /><defs
     id="defs1" /><g
     inkscape:label="Calque 1"
     inkscape:groupmode="layer"
     id="layer1"><path
       style="fill: rgb(253, 216, 53)"
       d="m 196.74712,232.32975 c -1.06402,-0.4964 -12.56926,-3.66453 -15.72597,-4.33039 -12.0279,-2.53708 -30.33874,-5.00565 -43.54896,-5.87103 -1.3836,-0.0907 -4.18477,-0.33494 -6.22484,-0.54291 -5.30753,-0.54102 -27.36338,-1.04112 -37.31423,-0.84609 -9.12066,0.17879 -22.56077,0.75545 -27.8931,1.19681 -7.86736,0.65117 -10.09601,0.8569 -13.21006,1.21946 -19.35026,2.2529 -32.77785,4.8278 -42.3436,8.11988 -3.5948695,1.23719 -3.5550295,1.49851 0.14612,0.95844 0.94379,-0.13771 4.92593,-0.55394 8.84918,-0.92493 3.92326,-0.37099 8.9859,-0.90773 11.25031,-1.19274 6.12038,-0.77034 13.52061,-1.49198 18.7329,-1.82675 2.54398,-0.16339 4.78339,-0.34922 4.97648,-0.41297 0.44043,-0.14538 13.86921,-0.78363 25.0272,-1.18949 12.19088,-0.44343 42.55544,-0.33718 51.98735,0.18193 9.15535,0.50389 13.36718,0.81274 20.12736,1.476 2.84136,0.27876 7.37128,0.69847 10.06649,0.93268 2.69521,0.23422 6.21236,0.59452 7.81588,0.8007 1.60353,0.20617 3.74991,0.44854 4.76974,0.53861 1.01983,0.0901 4.00045,0.39468 6.6236,0.67692 5.81354,0.6255 14.11598,1.32521 15.44497,1.30166 0.81353,-0.0143 0.88726,-0.0586 0.44318,-0.26579 z m -24.64034,-11.71833 c -0.0457,-3.16773 -1.23957,-5.73997 -3.3013,-7.11294 -1.38236,-0.92055 -2.44843,-1.12511 -4.90292,-0.94079 l -1.93471,0.14529 -0.4117,-1.23569 c -0.96432,-2.8943 -1.15335,-4.43437 -1.20728,-9.83605 -0.0588,-5.88518 0.12155,-7.45677 1.61972,-14.11748 0.9398,-4.17825 2.29736,-8.6961 3.32171,-11.05438 0.37299,-0.85871 0.6094,-1.62912 0.52535,-1.71205 -0.0841,-0.083 -0.78002,0.32752 -1.54661,0.91205 -1.62934,1.24242 -3.09479,1.91359 -5.49032,2.51456 -2.43436,0.61071 -4.52431,0.57644 -5.13118,-0.0843 -0.45777,-0.49828 -0.43233,-0.58097 0.72728,-2.36362 2.23426,-3.43474 4.72967,-8.74038 5.40461,-11.49107 0.64199,-2.6164 0.79705,-4.67688 0.35198,-4.67717 -0.13605,-5e-5 -1.25302,1.30535 -2.48215,2.90096 -1.28776,1.67172 -3.05191,3.5764 -4.16303,4.49466 -2.16706,1.79092 -4.18247,3.98881 -5.47092,5.96626 -1.62494,2.49391 -3.90924,9.04239 -4.75028,13.61777 -0.41253,2.24423 -0.25708,13.16438 0.22599,15.8768 0.60436,3.39341 0.70726,3.57167 2.26978,3.93221 2.71658,0.62683 5.53424,3.60786 6.63062,7.01511 0.28806,0.89521 0.62361,2.60696 0.74567,3.8039 l 0.22191,2.17625 0.83469,0.12555 c 0.45908,0.069 2.38514,0.32007 4.28013,0.55785 1.89498,0.23777 4.75902,0.7131 6.36452,1.05626 1.6055,0.34319 3.63448,0.69941 4.50884,0.79161 0.87435,0.0922 1.8584,0.22336 2.18677,0.29146 0.56936,0.11807 0.59591,0.0461 0.57282,-1.55319 z m -138.65061,0.28496 c 0.28331,-0.28734 0.56986,-1.10335 0.67351,-1.918 l 0.18041,-1.41788 0.35654,0.79405 c 0.1961,0.43675 0.36751,1.18107 0.3809,1.65406 l 0.0243,0.86 1.91764,-0.0252 c 2.92601,-0.0383 3.15509,-0.15389 3.63715,-1.83376 l 0.41448,-1.44435 0.20803,1.36922 c 0.12329,0.81154 0.36505,1.42926 0.59357,1.51663 0.21206,0.081 1.09487,0.0736 1.96181,-0.0166 l 1.57625,-0.16405 -0.0241,-1.67235 c -0.0655,-4.53781 -3.19829,-7.78027 -7.51974,-7.78301 l -1.26191,-8.2e-4 -0.21718,-1.52165 c -0.37495,-2.62701 -0.32892,-10.38618 0.0798,-13.45484 0.94402,-7.08734 2.53878,-9.78444 9.03136,-15.27411 8.47043,-7.16198 13.07159,-12.17088 16.79813,-18.28671 1.74059,-2.85656 2.20677,-3.47662 6.31528,-8.39972 3.34316,-4.00598 6.44147,-6.67535 9.60197,-8.27258 2.75281,-1.39119 7.85674,-2.99514 10.09865,-3.17357 l 1.60774,-0.12796 -1.05306,0.35751 c -1.35104,0.45866 -4.13868,1.85624 -5.20828,2.61115 -1.94713,1.37427 -5.18802,4.27933 -7.15368,6.41242 -1.8763,2.0361 -5.43106,6.94549 -5.19656,7.17685 0.0489,0.0482 0.69094,-0.20198 1.42667,-0.55614 2.74807,-1.32288 9.00483,-2.50117 13.2669,-2.49848 6.81295,0.004 12.82467,1.97381 23.02141,7.54206 l 2.68299,1.46513 0.3921,-3.3907 c 0.45866,-3.96653 1.08094,-6.25228 2.49662,-9.17065 1.38277,-2.85049 2.79857,-4.9716 4.59026,-6.87698 0.82063,-0.8727 1.94468,-2.16542 2.49789,-2.87273 0.55321,-0.70729 1.04857,-1.16307 1.1008,-1.01284 0.11268,0.32415 -1.87997,6.44067 -3.69168,11.3317 -2.16444,5.8433 -2.4529,7.78066 -2.3385,15.70578 0.0546,3.78056 0.27026,8.14402 0.4905,9.92322 0.2162,1.74657 0.65842,5.37864 0.98272,8.07126 0.3243,2.69262 0.98433,7.3965 1.46673,10.45305 0.48241,3.05656 1.06257,6.74825 1.28926,8.20376 0.54008,3.46771 1.89989,7.43731 3.14738,9.18793 1.26238,1.77152 3.06006,2.70463 6.26368,3.25125 2.70739,0.46196 6.93597,0.53867 7.18251,0.13025 0.28374,-0.47001 0.16665,-3.04208 -0.16607,-3.64777 -0.5038,-0.91713 0.12239,-0.68135 0.92083,0.34675 0.46574,0.59969 0.78314,1.4104 0.9067,2.31591 l 0.1901,1.39324 1.7223,0.18725 c 0.94727,0.10298 3.19242,0.28578 4.98922,0.40616 l 3.26692,0.21889 -0.20127,-1.44446 c -0.27995,-2.00907 -1.34159,-4.89541 -2.21361,-6.01823 -0.40253,-0.5183 -1.28678,-1.29154 -1.96501,-1.7183 -1.1914,-0.74967 -1.89383,-0.99765 -4.1532,-1.46619 l -1.06139,-0.2201 -0.94362,-2.6467 c -0.89442,-2.5087 -0.95309,-2.87832 -1.12515,-7.08876 -0.49715,-12.16487 2.51268,-23.92979 8.05734,-31.49484 0.94134,-1.28436 2.2902,-3.55291 2.99746,-5.04123 1.24959,-2.62957 1.28496,-2.7724 1.25201,-5.05513 -0.10027,-6.94648 -3.9434,-12.44221 -13.30024,-19.01951 -3.65823,-2.57152 -3.67493,-2.57972 -4.69196,-2.30539 -1.82397,0.49201 -4.80809,-0.37266 -8.3842,-2.42939 -2.74177,-1.57688 -3.68695,-2.38015 -5.34341,-4.54113 -3.06631,-4.00027 -4.15376,-6.59813 -5.25909,-12.5637 -0.38616,-2.08411 -0.78606,-4.10863 -0.88866,-4.49895 -0.22341,-0.84981 -1.96673,-3.4892 -2.30476,-3.48941 -0.13112,2e-5 -0.87331,0.47362 -1.64929,1.05269 -2.9391,2.19325 -9.174,5.10191 -14.41727,6.72587 -4.06433,1.25878 -11.58132,3.11752 -17.10142,4.22866 -5.7024,1.14783 -10.0875,2.57675 -14.5903,4.75436 -6.00845,2.90577 -10.91346,6.35221 -13.63362,9.57947 -2.14773,2.54813 -5.17788,6.74375 -6.37621,8.82866 -3.07965,5.35807 -3.67057,6.76464 -6.49348,15.4563 -1.83463,5.64874 -3.59721,9.63157 -5.87871,13.28386 -1.09729,1.75659 -3.33974,4.03137 -5.98737,6.07371 -3.48099,2.68518 -3.15193,1.17748 -2.89737,13.27521 0.37837,17.98223 0.94875,24.69969 2.31917,27.31342 0.65034,1.24035 1.88445,2.26735 3.14446,2.61676 0.54329,0.15066 2.2676,0.27539 3.8318,0.2772 2.43793,0.003 2.9144,-0.0682 3.3371,-0.49684 z m 54.95964,-3.6137 4.05512,-0.0964 -0.19308,-1.1177 c -0.44949,-2.60191 -2.48789,-5.29958 -4.72994,-6.25975 -0.99659,-0.4268 -2.00107,-0.60324 -3.74747,-0.65826 -2.62803,-0.0828 -2.5216,-0.0184 -3.5742,-2.16214 -1.39393,-2.83888 -1.87959,-5.41193 -1.96995,-10.43677 -0.11702,-6.5061 0.12833,-7.005 5.82505,-11.846 4.61295,-3.92003 8.39229,-7.84601 10.0455,-10.43526 2.16314,-3.38786 4.54555,-9.83179 3.81119,-10.30844 -0.62645,-0.40661 -4.58799,-1.51109 -6.83617,-1.90595 -3.64711,-0.64055 -5.78613,-0.74724 -8.80502,-0.43918 -5.32132,0.54304 -8.8562,1.934 -13.95079,5.48957 -2.18388,1.52415 -2.79402,2.07947 -2.65012,2.41203 0.48925,1.13056 0.80403,5.12486 0.54778,6.95089 -0.50475,3.59694 -2.77306,6.9421 -5.92071,8.73151 -0.77851,0.44257 -1.4144,0.87957 -1.41308,0.97111 0.0115,0.79485 2.68734,9.14711 4.67885,14.60421 4.45001,12.19388 5.79945,14.91837 7.88725,15.92408 1.05274,0.50712 1.67133,0.56153 7.01957,0.61742 3.22581,0.0337 7.68991,0.018 9.92022,-0.035 z m 74.5445,-46.7265 c 0.81394,-0.64593 2.0794,-1.9251 2.81212,-2.84263 1.63551,-2.04796 4.21093,-7.32378 4.88214,-10.0012 2.25995,-9.01473 0.088,-19.76984 -5.69877,-28.21981 -3.26111,-4.76192 -6.73314,-8.56452 -13.40801,-14.6846 -6.95496,-6.37689 -9.42094,-9.2669 -11.59028,-13.58326 -3.03219,-6.033179 -3.81587,-13.897318 -1.96724,-19.740929 0.93149,-2.944494 3.24962,-7.57843 4.73026,-9.455792 2.42236,-3.071395 5.99037,-5.605012 8.50321,-6.03807 l 1.05559,-0.181917 -2.37594,2.350228 c -1.30676,1.292626 -2.97354,3.265536 -3.70394,4.384243 -1.53954,2.358007 -3.69572,7.684182 -4.24365,10.482628 -0.47949,2.448962 -0.41896,7.570616 0.12048,10.193072 0.85388,4.151102 3.68694,9.511777 7.20542,13.633977 0.95161,1.1149 4.83096,5.06547 8.62077,8.77903 7.5211,7.36978 9.27377,9.36357 12.11403,13.78053 3.43308,5.33888 5.48895,9.80736 6.8378,14.8621 0.75803,2.84069 0.89468,3.85225 1.0724,7.93846 0.22681,5.21511 -0.0254,8.04849 -0.95324,10.71066 -0.61083,1.7525 -0.5795,1.83563 0.53204,1.4113 2.66895,-1.01886 6.24268,-6.23852 7.75753,-11.33038 2.83993,-9.54583 1.05238,-19.065 -5.42331,-28.8805 -3.60961,-5.47125 -8.92421,-10.79602 -17.98387,-18.01831 -9.36471,-7.465447 -14.13407,-15.920066 -13.57352,-24.061714 0.29158,-4.235094 1.39184,-7.2455 3.6482,-9.981833 1.92168,-2.330448 2.18582,-2.273453 1.21564,0.262311 -2.70262,7.063821 -2.08632,14.242701 1.75298,20.419317 2.7077,4.356127 6.34723,8.169089 12.77722,13.386069 12.73358,10.33143 17.15979,15.35727 21.34121,24.23241 1.64252,3.48626 2.27181,6.00016 2.49471,9.9658 0.13316,2.36893 0.28418,3.37398 0.50703,3.37412 0.46607,2e-5 2.15534,-4.21212 2.84458,-7.09333 1.05878,-4.42602 0.59649,-9.99381 -1.18836,-14.31245 -1.5266,-3.6938 -3.59188,-6.72545 -6.82089,-10.01246 -3.66317,-3.72899 -5.52603,-5.16484 -13.55234,-10.44583 -8.23079,-5.415534 -10.14391,-6.847702 -12.61698,-9.445147 -3.77982,-3.969905 -5.33896,-6.865688 -5.88223,-10.925053 -0.4569,-3.413961 0.0647,-3.767633 1.01649,-0.689222 0.80886,2.616159 1.90657,4.400157 3.70848,6.027031 l 1.52444,1.37636 1.98857,-0.230266 c 3.7798,-0.437681 8.64944,-0.267097 10.87681,0.381016 2.29062,0.666517 4.64401,0.755269 5.88114,0.221792 2.44875,-1.055955 3.89576,-4.459611 2.97484,-6.997415 l -0.30067,-0.82855 -0.83749,0.645503 c -0.46062,0.355027 -1.54198,0.976617 -2.40302,1.381311 -1.39426,0.655307 -1.855,0.734162 -4.21129,0.720762 -2.03967,-0.0116 -2.9448,-0.138851 -3.95118,-0.555493 -1.64331,-0.680328 -1.32316,-0.893927 0.87934,-0.586683 4.09002,0.570548 8.87599,-1.718422 10.29362,-4.9231 0.95558,-2.160157 0.59444,-2.960311 -2.13582,-4.732196 -0.70706,-0.458871 -1.28805,-1.006353 -1.29109,-1.216625 -0.007,-0.47624 1.51255,-0.828305 2.76855,-0.641498 1.9226,0.285954 2.12181,0.373145 2.12988,0.932193 0.007,0.449352 0.17339,0.347756 0.91787,-0.558718 0.96504,-1.175025 1.06867,-1.5771 0.61793,-2.397639 -0.42219,-0.768582 -1.87314,-1.394047 -5.99784,-2.585511 -6.81882,-1.969689 -7.77923,-2.454464 -9.35011,-4.719563 -0.61975,-0.893638 -1.63156,-1.916406 -2.38261,-2.408413 -1.62566,-1.064955 -11.59744,-4.395864 -14.87141,-4.967552 -2.28194,-0.398464 -5.9694,-0.558358 -5.96508,-0.258654 0.001,0.08304 0.47442,0.708485 1.05159,1.389872 1.10641,1.306178 2.18816,3.120349 2.19629,3.683343 0.003,0.207841 -0.35602,0.334457 -0.94729,0.334083 -0.75678,-4.76e-4 -1.39939,-0.335386 -3.13207,-1.632318 -2.65562,-1.987769 -5.14514,-3.154826 -7.09439,-3.325774 -1.23022,-0.10789 -1.6054,-0.02889 -2.37398,0.500099 -0.50206,0.345531 -1.18104,1.100848 -1.50886,1.678481 -0.52733,0.929207 -0.58134,1.324707 -0.46867,3.431821 0.15541,2.906368 1.04167,5.040427 2.80084,6.744267 l 1.16076,1.124255 1.73815,-1.638253 c 0.99485,-0.937669 2.44397,-1.970416 3.38865,-2.414986 1.82188,-0.85739 5.06682,-1.627769 6.3328,-1.503464 0.75082,0.07372 0.64386,0.172295 -1.37399,1.26625 -3.95651,2.144975 -8.62932,6.346319 -11.7722,10.584435 -1.93719,2.612271 -4.38123,7.669767 -5.16861,10.695524 -2.05632,7.901992 -1.41681,16.235335 1.76321,22.975835 2.2255,4.71727 4.90631,8.04376 12.4232,15.41529 6.86599,6.73322 8.63478,8.71198 11.22818,12.56102 6.40747,9.50976 8.81245,19.70367 6.84043,28.99431 -0.37065,1.7462 -1.05888,4.03795 -1.52941,5.09279 -0.47053,1.05484 -0.8335,1.91783 -0.80659,1.91776 0.0269,-8e-5 0.71487,-0.52863 1.52882,-1.17455 z M 162.60524,66.385384 c -1.12,-0.2839 -3.89754,-2.007775 -4.06757,-2.524532 -0.16814,-0.511018 2.15258,-1.238377 3.41827,-1.071356 0.88349,0.116582 1.33618,0.37784 2.08405,1.202739 0.52547,0.579594 1.09396,1.485169 1.26331,2.012388 l 0.30791,0.958581 -0.97193,-0.154299 c -0.53457,-0.08487 -1.44988,-0.275447 -2.03404,-0.423521 z m -7.35868,92.177206 c 1.31843,-2.97949 1.68717,-5.16387 1.46274,-8.66508 -0.35739,-5.57564 -2.33061,-10.1903 -6.90383,-16.14563 -0.78271,-1.01925 -4.51896,-4.89155 -8.3028,-8.60511 -3.78384,-3.71355 -7.66534,-7.76455 -8.62558,-9.00222 -1.91812,-2.47231 -4.90238,-8.0925 -5.79242,-10.90872 -0.73481,-2.32502 -1.4564,-7.078393 -1.48936,-9.810789 -0.065,-5.388092 0.97324,-9.798432 3.51692,-14.939835 0.68933,-1.39331 1.19646,-2.589402 1.12695,-2.657983 -0.1906,-0.188039 -1.50609,0.72088 -2.17598,1.503449 -4.36686,5.10146 -7.90741,12.689965 -8.94624,19.174594 -0.5767,3.599904 -0.23544,9.741484 0.73396,13.208934 2.04772,7.32451 7.80488,14.32575 17.79483,21.64015 7.8261,5.73011 12.39539,10.70877 14.84032,16.16992 1.04429,2.3326 1.8375,6.55249 1.74865,9.3029 -0.0318,0.98267 -0.0212,1.78643 0.0235,1.78612 0.0447,-2.9e-4 0.48942,-0.92311 0.98838,-2.05069 z M 40.59332,137.1866 c 2.04764,-3.32157 10.09551,-10.7759 13.51838,-12.52138 0.71929,-0.3668 1.24725,-0.72664 1.17326,-0.79964 -0.0739,-0.073 -2.0281,0.46233 -4.34245,1.18965 -8.06276,2.53381 -16.22767,3.79333 -20.95916,3.23315 -6.09605,-0.72173 -11.05734,-3.68098 -13.17066,-7.85587 -1.45846,-2.88118 -1.82157,-6.96229 -0.88057,-9.89676 1.55259,-4.8417 4.1049,-7.6405 10.37852,-11.380852 5.58608,-3.330441 11.33624,-7.231471 13.7788,-9.347834 2.79459,-2.421368 5.82891,-6.285279 7.30856,-9.306739 1.12741,-2.302184 2.45479,-6.796606 2.67429,-9.054987 0.94958,-9.769795 -5.16798,-19.368075 -15.04884,-23.611214 -3.73053,-1.602006 -5.75852,-2.009293 -10.01822,-2.011987 -4.16595,-0.0026 -5.77911,0.381784 -9.21929,2.196967 -2.98566,1.575363 -5.8614195,4.876342 -5.8579395,6.724117 0.002,0.661299 0.3340795,0.583168 1.9460195,-0.456795 0.78447,-0.506106 2.35369,-1.232736 3.48716,-1.614734 1.88415,-0.634986 2.33322,-0.684324 5.23721,-0.575405 2.677,0.100405 3.56458,0.250912 5.64571,0.957332 3.98771,1.353591 6.21468,2.97271 8.89812,6.46937 1.84878,2.409057 3.50049,5.445905 4.22006,7.759084 0.67287,2.163034 0.74009,6.577259 0.1328,8.714869 -0.64937,2.285409 -2.51388,5.780827 -4.28342,8.030142 -2.22808,2.832208 -4.87707,4.655073 -3.43452,2.36342 0.85921,-1.364953 3.06858,-6.169793 3.61207,-7.855377 1.53244,-4.752707 0.99058,-9.447831 -1.53108,-13.266466 -1.51777,-2.298414 -3.52148,-4.092683 -5.84502,-5.234084 -1.93075,-0.948442 -2.09086,-0.980873 -4.78798,-0.969788 -2.5118,0.01033 -2.94785,0.08717 -4.36682,0.769535 l -1.57637,0.758069 1.75106,0.195605 c 5.69986,0.636716 9.33192,5.678098 9.40997,13.061243 0.0734,6.939417 -2.4656,11.619853 -11.7161,21.597945 -5.39984,5.824554 -7.9260295,11.246614 -8.2427895,17.691754 -0.37998,7.7316 3.2707395,14.67785 9.9622895,18.95536 3.83457,2.4512 10.1612,4.67566 16.10619,5.66298 1.7607,0.29241 3.52967,0.65606 3.93105,0.80811 0.40137,0.15207 0.8113,0.27547 0.91093,0.27426 0.0997,-4.9e-4 0.63913,-0.74508 1.19887,-1.65305 z m 153.60592,-28.01119 c 0.88321,-0.19226 2.31129,-0.70792 3.17352,-1.1459 2.65513,-1.34876 5.83892,-5.29821 5.80846,-7.20532 -0.01,-0.62485 -0.0246,-0.62003 -0.48953,0.16066 -1.51526,2.54459 -4.89959,3.95097 -9.37169,3.89444 -3.54411,-0.0444 -5.53755,-0.55205 -13.21005,-3.36136 -3.50956,-1.28504 -3.45132,-0.77534 0.15772,1.38029 0.99376,0.59355 3.25765,2.23156 5.03087,3.64003 3.98593,3.166 5.03854,3.47787 8.9007,2.63716 z m -81.24788,-6.83006 c 0.013,-2.989066 0.36275,-4.915185 1.43629,-7.910588 2.0076,-5.601605 4.77795,-10.135085 8.68661,-14.215003 3.08548,-3.220666 6.06897,-5.579279 8.66537,-6.850436 4.23213,-2.071986 4.42395,-3.974273 0.31645,-3.138248 -2.66629,0.542685 -8.05449,3.269162 -11.64185,5.890882 -3.07475,2.24709 -5.89789,5.072442 -7.28502,7.290734 -3.60444,5.764191 -4.29542,13.81554 -1.62102,18.888369 1.33027,2.52326 1.43234,2.5264 1.44317,0.0443 z m 76.36475,-1.88521 c 3.94872,-0.751294 7.81719,-3.511316 9.212,-6.572443 0.63422,-1.391894 0.96018,-4.494389 0.57425,-5.465746 -0.23837,-0.59994 -0.27372,-0.563487 -0.53948,0.556188 -0.63726,2.684918 -3.15942,5.156538 -6.43954,6.310514 -1.90933,0.671713 -6.21492,0.961531 -8.3415,0.561465 -1.67238,-0.314611 -7.95186,-2.552955 -10.75357,-3.83315 -1.61702,-0.738876 -2.20992,-0.864333 -4.47219,-0.946322 -1.52096,-0.05512 -2.71694,0.01594 -2.86932,0.170491 -0.17457,0.177051 0.31086,0.690877 1.4625,1.548085 0.94809,0.705692 2.94706,2.200773 4.44216,3.322394 2.91068,2.183609 3.03098,2.23331 8.85511,3.658361 4.02515,0.984883 6.36405,1.166873 8.86958,0.690163 z M 39.23364,96.821071 c 1.4994,-0.522647 2.68248,-1.30179 6.99124,-4.60422 3.65332,-2.800074 5.26872,-4.517698 7.54536,-8.022863 2.18318,-3.361286 2.67217,-4.372946 3.33974,-6.909634 0.63084,-2.397051 0.67762,-6.605427 0.10246,-9.214534 -0.4523,-2.051738 -1.78922,-5.373408 -2.50343,-6.21994 l -0.55843,-0.661881 0.18969,0.661649 c 0.10434,0.363906 0.2776,2.456135 0.38508,4.649399 0.1709,3.487782 0.12879,4.267391 -0.33593,6.218144 -0.84182,3.533781 -3.57971,8.876565 -6.70049,13.075536 -1.71052,2.301474 -5.47575,6.341709 -7.10308,7.621883 -1.22619,0.964596 -3.86327,3.558609 -3.85983,3.796796 0.003,0.226671 1.32999,0.02014 2.50762,-0.390335 z m 58.0122,-14.282325 c 1.38305,-0.622491 3.18695,-2.717003 3.40005,-3.94781 l 0.16566,-0.956752 0.46771,1.37446 c 0.25724,0.755953 0.61664,1.550967 0.79867,1.766695 0.40389,0.478702 2.94582,2.118129 3.06779,1.978584 0.0481,-0.05508 -0.0169,-0.755116 -0.14548,-1.555644 -0.12815,-0.800529 -0.2668,-3.194592 -0.3081,-5.320139 -0.14354,-7.387488 -1.00939,-13.652396 -2.08702,-15.101098 -0.44498,-0.598201 -0.50436,-0.975139 -0.38731,-2.458157 0.0949,-1.201957 0.0289,-1.950711 -0.21027,-2.386084 -0.27483,-0.500308 -0.31304,-1.743116 -0.18073,-5.877445 0.0923,-2.883637 0.14061,-5.285167 0.10737,-5.336732 -0.0332,-0.05157 -0.74909,0.137209 -1.59075,0.419497 l -1.53031,0.513251 -0.008,5.004013 c -0.0144,9.273106 -0.0357,9.705489 -0.53146,10.82351 -0.76036,1.714655 -1.13381,5.153919 -1.29305,11.908287 -0.10157,4.308392 -0.27846,6.851873 -0.55008,7.909482 -0.22019,0.857405 -0.3643,1.594488 -0.32023,1.637964 0.0441,0.04348 0.55496,-0.134672 1.13532,-0.395886 z m 23.11237,-10.507362 c 1.45728,-0.326356 4.31081,-1.370751 7.55117,-2.763733 1.98023,-0.85127 3.78568,-1.547647 4.0121,-1.547503 0.52812,3.59e-4 0.5197,-0.07155 -0.16031,-1.36849 -0.94241,-1.797416 -1.34314,-3.420484 -1.37731,-5.57852 -0.0179,-1.127915 -0.13335,-2.050818 -0.25665,-2.050896 -0.1233,-5.8e-5 -1.13131,0.80304 -2.24003,1.784707 -7.0824,6.270823 -10.19978,8.227574 -13.4786,8.460392 -1.37839,0.09788 -2.05843,0.02249 -2.70921,-0.300318 -1.0572,-0.524405 -1.05349,-0.524251 -1.04655,-0.04339 0.01,0.69014 1.71424,2.326993 3.08319,2.961222 1.10744,0.513072 1.73734,0.613344 3.71421,0.591251 1.30932,-0.01464 2.61792,-0.07975 2.90799,-0.144716 z m 3.40145,-12.404656 c 1.61579,-1.669473 4.43865,-3.661999 5.91426,-4.174607 0.77175,-0.268098 1.19706,-0.68807 1.91107,-1.887078 1.112,-1.867336 1.80308,-2.414158 3.68513,-2.915848 1.91183,-0.509633 3.88963,-0.488164 5.96735,0.06478 1.60679,0.427613 1.79932,0.427735 3.39379,0.0021 3.66172,-0.977368 10.06366,-0.20632 15.08699,1.817072 0.46244,0.186269 0.45904,0.137629 -0.0594,-0.851179 -1.35224,-2.579061 -5.51989,-7.003088 -7.55145,-8.015987 -2.49942,-1.246171 -6.94161,-2.102708 -11.15771,-2.151413 -2.46609,-0.02847 -1.31889,-0.384763 2.40128,-0.745743 4.86774,-0.472333 9.40133,0.183967 12.10079,1.751742 0.62543,0.363233 1.91106,1.495846 2.85697,2.516918 l 1.71982,1.856495 2.32655,-0.804128 c 1.27961,-0.44227 4.04489,-1.349459 6.14508,-2.015976 4.68305,-1.486211 4.78379,-1.541374 4.06842,-2.227755 -0.81809,-0.784944 -21.77521,-11.160903 -22.52244,-11.150958 -0.36,0.0048 -2.9053,0.782766 -5.65622,1.728836 -4.46337,1.534995 -16.39079,5.497567 -34.22779,11.371288 -3.33077,1.096821 -6.2616,2.179974 -6.51296,2.407009 -0.51538,0.465518 -0.63056,2.976765 -0.13654,2.977078 0.43881,3.14e-4 6.87938,2.461977 11.02088,4.21238 l 3.72649,1.574993 0.17841,-1.102787 c 0.44734,-2.765048 3.39509,-6.688647 6.04415,-8.045053 1.07206,-0.548931 4.41693,-1.657147 4.95919,-1.64307 0.16661,0.0043 -0.5172,0.448157 -1.5196,0.986293 -2.59318,1.392158 -4.61026,3.373296 -5.50807,5.409929 -0.67269,1.525953 -0.73684,1.969915 -0.78456,5.429831 -0.0506,3.669869 0.0902,5.096489 0.50296,5.096749 0.11132,7.8e-5 0.84355,-0.66231 1.62717,-1.471956 z"
       id="path1" /></g></svg>
